<svg width="40" height="40" viewBox="0 0 40 40" fill="none" xmlns="http://www.w3.org/2000/svg">
<path fill-rule="evenodd" clip-rule="evenodd" d="M20.0033 -0.00439453C21.1098 -0.00439453 22.0067 0.892534 22.0067 1.99895V17.9956H38.0033C39.1098 17.9956 40.0067 18.8925 40.0067 19.999C40.0067 21.1054 39.1098 22.0023 38.0033 22.0023H22.0067V37.999C22.0067 39.1054 21.1098 40.0023 20.0033 40.0023C18.8969 40.0023 18 39.1054 18 37.999V22.0023H2.00335C0.896929 22.0023 0 21.1054 0 19.999C0 18.8925 0.896929 17.9956 2.00335 17.9956H18V1.99895C18 0.892534 18.8969 -0.00439453 20.0033 -0.00439453Z" fill="#DBEFFE"/>
</svg>
