<svg width="40" height="40" viewBox="0 0 40 40" fill="none" xmlns="http://www.w3.org/2000/svg">
<path fill-rule="evenodd" clip-rule="evenodd" d="M20.0031 -0.00390625C21.1095 -0.00390625 22.0064 0.893023 22.0064 1.99944V17.9961H38.0031C39.1095 17.9961 40.0065 18.893 40.0065 19.9994C40.0065 21.1059 39.1095 22.0028 38.0031 22.0028H22.0064V37.9994C22.0064 39.1059 21.1095 40.0028 20.0031 40.0028C18.8967 40.0028 17.9998 39.1059 17.9998 37.9994V22.0028H2.0031C0.896685 22.0028 -0.000244141 21.1059 -0.000244141 19.9994C-0.000244141 18.893 0.896685 17.9961 2.0031 17.9961H17.9998V1.99944C17.9998 0.893023 18.8967 -0.00390625 20.0031 -0.00390625Z" fill="#4B1B97"/>
</svg>
