<svg width="17" height="17" viewBox="0 0 17 17" fill="none" xmlns="http://www.w3.org/2000/svg">
<g clip-path="url(#clip0_55_1001)">
<path d="M9.51812 14.5201H6.51526V15.5211H9.51812V14.5201Z" fill="#27272A"/>
<path d="M10.0167 13.0203H6.01526V14.0206H10.0167V13.0203Z" fill="#27272A"/>
<path d="M11.5615 1.97697C10.6216 1.03583 9.36259 0.517592 8.01636 0.517592C7.35917 0.516026 6.70814 0.644314 6.10068 0.895087C5.49321 1.14586 4.94127 1.51418 4.47656 1.97888C4.01186 2.44359 3.64354 2.99553 3.39277 3.60299C3.14199 4.21046 3.01371 4.86149 3.01527 5.51868C3.01527 6.97587 3.57383 8.33898 4.54686 9.25824L4.68314 9.38608C5.24607 9.91245 6.01593 10.6335 6.01593 11.2699V12.5202H7.51625V8.429L6.1322 7.64414L6.70358 6.82271L8.01636 7.51912L9.30696 6.81928L9.90396 7.62195L8.51647 8.43463V12.5202H10.0168V11.2699C10.0168 10.6485 10.7782 9.92808 11.3343 9.40171L11.4877 9.25606C12.4886 8.30054 13.0175 7.00682 13.0175 5.51868C13.0208 4.86143 12.8938 4.21003 12.6439 3.60213C12.394 2.99423 12.0261 2.44187 11.5615 1.97697Z" fill="#27272A"/>
</g>
<defs>
<clipPath id="clip0_55_1001">
<rect width="16.0035" height="16.0035" fill="white" transform="translate(0.013916 0.0174561)"/>
</clipPath>
</defs>
</svg>
