<svg width="16" height="16" viewBox="0 0 16 16" fill="none" xmlns="http://www.w3.org/2000/svg">
<g clip-path="url(#clip0_1187_200)">
<path d="M7.36847 4.66245C7.41284 4.63683 7.45793 4.61381 7.50358 4.59331V7.28012C6.41892 6.80113 6.31734 5.26932 7.36847 4.66245Z" fill="#94959C"/>
<path d="M8.50358 11.4071V8.72014C9.58837 9.19907 9.69001 10.731 8.63883 11.3379C8.59441 11.3635 8.54927 11.3866 8.50358 11.4071Z" fill="#94959C"/>
<path fill-rule="evenodd" clip-rule="evenodd" d="M0.836914 8.00016C0.836914 4.04212 4.04554 0.833496 8.00358 0.833496C11.9616 0.833496 15.1702 4.04212 15.1702 8.00016C15.1702 11.9582 11.9616 15.1668 8.00358 15.1668C4.04554 15.1668 0.836914 11.9582 0.836914 8.00016ZM8.50358 3.3335C8.50358 3.05735 8.27972 2.8335 8.00358 2.8335C7.72743 2.8335 7.50358 3.05735 7.50358 3.3335V3.53889C7.28575 3.59354 7.07199 3.67892 6.86847 3.79643C5.05389 4.84407 5.28453 7.53277 7.25102 8.25608L7.50358 8.34899V11.4798C7.147 11.3792 6.82841 11.1448 6.62895 10.7993L6.37857 10.3657C6.2405 10.1265 5.9347 10.0446 5.69556 10.1827C5.45641 10.3207 5.37447 10.6265 5.51254 10.8657L5.76292 11.2993C6.14856 11.9673 6.79869 12.3866 7.50358 12.5025V12.6668C7.50358 12.943 7.72744 13.1668 8.00358 13.1668C8.27972 13.1668 8.50358 12.943 8.50358 12.6668V12.4615C8.72146 12.4068 8.93526 12.3214 9.13883 12.2039C10.9534 11.1563 10.7228 8.46756 8.75629 7.74425L8.50358 7.65131V4.5205C8.86021 4.62106 9.17886 4.85547 9.37836 5.201L9.62873 5.63466C9.7668 5.87381 10.0726 5.95575 10.3117 5.81768C10.5509 5.6796 10.6328 5.37381 10.4948 5.13466L10.2444 4.701C9.85872 4.03301 9.20852 3.6137 8.50358 3.49783V3.3335Z" fill="#94959C"/>
</g>
<defs>
<clipPath id="clip0_1187_200">
<rect width="16" height="16" fill="white" transform="translate(0.00341797)"/>
</clipPath>
</defs>
</svg>
