<svg width="64" height="64" viewBox="0 0 64 64" fill="none" xmlns="http://www.w3.org/2000/svg">
<path fill-rule="evenodd" clip-rule="evenodd" d="M31.9994 3.99707C33.1058 3.99707 34.0027 4.894 34.0027 6.00042V39.1602L40.58 32.5829C41.3624 31.8005 42.6308 31.8005 43.4132 32.5829C44.1955 33.3652 44.1955 34.6337 43.4132 35.416L33.4117 45.4175C32.6294 46.1998 31.3609 46.1998 30.5786 45.4175L20.5771 35.416C19.7948 34.6337 19.7948 33.3652 20.5771 32.5829C21.3595 31.8005 22.6279 31.8005 23.4103 32.5829L29.996 39.1686V6.00042C29.996 4.894 30.8929 3.99707 31.9994 3.99707ZM16.9998 24.0035C16.205 24.0035 15.4428 24.3192 14.8809 24.8812C14.3189 25.4431 14.0032 26.2053 14.0032 27.0001V53.0001C14.0032 53.7949 14.3189 54.5571 14.8809 55.1191C15.4428 55.681 16.205 55.9968 16.9998 55.9968H46.9998C47.7946 55.9968 48.5568 55.681 49.1188 55.1191C49.6808 54.5571 49.9965 53.7949 49.9965 53.0001V27.0001C49.9965 26.2053 49.6808 25.4431 49.1188 24.8812C48.5568 24.3192 47.7946 24.0035 46.9998 24.0035H41.9998C40.8934 24.0035 39.9965 23.1065 39.9965 22.0001C39.9965 20.8937 40.8934 19.9968 41.9998 19.9968H46.9998C48.8572 19.9968 50.6385 20.7346 51.9519 22.048C53.2653 23.3614 54.0032 25.1427 54.0032 27.0001V53.0001C54.0032 54.8575 53.2653 56.6388 51.9519 57.9522C50.6385 59.2656 48.8572 60.0035 46.9998 60.0035H16.9998C15.1424 60.0035 13.3611 59.2656 12.0477 57.9522C10.7343 56.6388 9.99646 54.8575 9.99646 53.0001V27.0001C9.99646 25.1427 10.7343 23.3614 12.0477 22.048C13.3611 20.7346 15.1424 19.9968 16.9998 19.9968H21.9998C23.1062 19.9968 24.0032 20.8937 24.0032 22.0001C24.0032 23.1065 23.1062 24.0035 21.9998 24.0035H16.9998Z" fill="#4B1B97"/>
</svg>
