<svg width="16" height="16" viewBox="0 0 16 16" fill="none" xmlns="http://www.w3.org/2000/svg">
<path fill-rule="evenodd" clip-rule="evenodd" d="M8.00776 2.49994C7.73161 2.49994 7.50775 2.7238 7.50775 2.99995C7.50775 3.27609 7.73161 3.49995 8.00776 3.49995C8.2839 3.49995 8.50777 3.27609 8.50777 2.99995C8.50777 2.7238 8.2839 2.49994 8.00776 2.49994ZM6.50586 2.99995C6.50586 2.17047 7.17828 1.49805 8.00776 1.49805C8.83723 1.49805 9.50966 2.17047 9.50966 2.99995C9.50966 3.82942 8.83723 4.50185 8.00776 4.50185C7.17828 4.50185 6.50586 3.82942 6.50586 2.99995ZM8.00776 7.50067C7.73161 7.50067 7.50775 7.72453 7.50775 8.00068C7.50775 8.27683 7.73161 8.50069 8.00776 8.50069C8.2839 8.50069 8.50777 8.27683 8.50777 8.00068C8.50777 7.72453 8.2839 7.50067 8.00776 7.50067ZM6.50586 8.00068C6.50586 7.1712 7.17828 6.49878 8.00776 6.49878C8.83723 6.49878 9.50966 7.1712 9.50966 8.00068C9.50966 8.83015 8.83723 9.50258 8.00776 9.50258C7.17828 9.50258 6.50586 8.83015 6.50586 8.00068ZM8.00776 12.5023C7.73161 12.5023 7.50775 12.7261 7.50775 13.0023C7.50775 13.2784 7.73161 13.5023 8.00776 13.5023C8.2839 13.5023 8.50777 13.2784 8.50777 13.0023C8.50777 12.7261 8.2839 12.5023 8.00776 12.5023ZM6.50586 13.0023C6.50586 12.1728 7.17828 11.5004 8.00776 11.5004C8.83723 11.5004 9.50966 12.1728 9.50966 13.0023C9.50966 13.8317 8.83723 14.5042 8.00776 14.5042C7.17828 14.5042 6.50586 13.8317 6.50586 13.0023Z" fill="#606169" stroke="#606169" stroke-miterlimit="10"/>
</svg>
