<svg width="180" height="180" viewBox="0 0 180 180" fill="none" xmlns="http://www.w3.org/2000/svg">
<path d="M23.3998 48.6001C22.445 48.6001 21.5294 48.9794 20.8542 49.6545C20.1791 50.3296 19.7998 51.2453 19.7998 52.2001C19.7998 53.1549 20.1791 54.0706 20.8542 54.7457C21.5294 55.4208 22.445 55.8001 23.3998 55.8001C24.3546 55.8001 25.2703 55.4208 25.9454 54.7457C26.6205 54.0706 26.9998 53.1549 26.9998 52.2001C26.9998 51.2453 26.6205 50.3296 25.9454 49.6545C25.2703 48.9794 24.3546 48.6001 23.3998 48.6001Z" fill="#EE3E54"/>
<path d="M138.6 21.6001C138.122 21.6001 137.665 21.7897 137.327 22.1273C136.989 22.4649 136.8 22.9227 136.8 23.4001C136.8 23.8775 136.989 24.3353 137.327 24.6729C137.665 25.0105 138.122 25.2001 138.6 25.2001C139.077 25.2001 139.535 25.0105 139.873 24.6729C140.21 24.3353 140.4 23.8775 140.4 23.4001C140.4 22.9227 140.21 22.4649 139.873 22.1273C139.535 21.7897 139.077 21.6001 138.6 21.6001Z" fill="#A589FC"/>
<path d="M89.9999 23.3999C72.3365 23.3999 55.3965 30.4167 42.9066 42.9066C30.4167 55.3965 23.3999 72.3365 23.3999 89.9999C23.3999 107.663 30.4167 124.603 42.9066 137.093C55.3965 149.583 72.3365 156.6 89.9999 156.6C107.663 156.6 124.603 149.583 137.093 137.093C149.583 124.603 156.6 107.663 156.6 89.9999C156.6 72.3365 149.583 55.3965 137.093 42.9066C124.603 30.4167 107.663 23.3999 89.9999 23.3999Z" fill="#A589FC"/>
<path d="M149.4 19.7998C147.491 19.7998 145.659 20.5584 144.309 21.9086C142.959 23.2589 142.2 25.0902 142.2 26.9998C142.2 28.9094 142.959 30.7407 144.309 32.091C145.659 33.4412 147.491 34.1998 149.4 34.1998C151.31 34.1998 153.141 33.4412 154.491 32.091C155.842 30.7407 156.6 28.9094 156.6 26.9998C156.6 25.0902 155.842 23.2589 154.491 21.9086C153.141 20.5584 151.31 19.7998 149.4 19.7998Z" fill="#A589FC"/>
<path d="M156.6 39.6001C155.645 39.6001 154.73 39.9794 154.054 40.6545C153.379 41.3296 153 42.2453 153 43.2001C153 44.1549 153.379 45.0706 154.054 45.7457C154.73 46.4208 155.645 46.8001 156.6 46.8001C157.555 46.8001 158.47 46.4208 159.146 45.7457C159.821 45.0706 160.2 44.1549 160.2 43.2001C160.2 42.2453 159.821 41.3296 159.146 40.6545C158.47 39.9794 157.555 39.6001 156.6 39.6001Z" fill="#EE3E54"/>
<path d="M145.8 133.2C144.845 133.2 143.929 133.579 143.254 134.255C142.579 134.93 142.2 135.845 142.2 136.8C142.2 137.755 142.579 138.671 143.254 139.346C143.929 140.021 144.845 140.4 145.8 140.4C146.755 140.4 147.67 140.021 148.345 139.346C149.021 138.671 149.4 137.755 149.4 136.8C149.4 135.845 149.021 134.93 148.345 134.255C147.67 133.579 146.755 133.2 145.8 133.2ZM26.9998 106.2C25.0902 106.2 23.2589 106.959 21.9086 108.309C20.5584 109.659 19.7998 111.491 19.7998 113.4C19.7998 115.31 20.5584 117.141 21.9086 118.491C23.2589 119.842 25.0902 120.6 26.9998 120.6C28.9094 120.6 30.7407 119.842 32.091 118.491C33.4412 117.141 34.1998 115.31 34.1998 113.4C34.1998 111.491 33.4412 109.659 32.091 108.309C30.7407 106.959 28.9094 106.2 26.9998 106.2Z" fill="#A589FC"/>
<path d="M44.9999 153C44.0451 153 43.1294 153.379 42.4543 154.054C41.7792 154.73 41.3999 155.645 41.3999 156.6C41.3999 157.555 41.7792 158.47 42.4543 159.146C43.1294 159.821 44.0451 160.2 44.9999 160.2C45.9547 160.2 46.8704 159.821 47.5455 159.146C48.2206 158.47 48.5999 157.555 48.5999 156.6C48.5999 155.645 48.2206 154.73 47.5455 154.054C46.8704 153.379 45.9547 153 44.9999 153Z" fill="#EE3E54"/>
<path d="M33.2998 91.7998C32.1063 91.7998 30.9617 92.2739 30.1178 93.1178C29.2739 93.9617 28.7998 95.1063 28.7998 96.2998C28.7998 97.4933 29.2739 98.6379 30.1178 99.4818C30.9617 100.326 32.1063 100.8 33.2998 100.8C34.4933 100.8 35.6379 100.326 36.4818 99.4818C37.3257 98.6379 37.7998 97.4933 37.7998 96.2998C37.7998 95.1063 37.3257 93.9617 36.4818 93.1178C35.6379 92.2739 34.4933 91.7998 33.2998 91.7998Z" fill="white"/>
<path d="M37.8 118.8C37.3226 118.8 36.8648 118.989 36.5272 119.327C36.1896 119.665 36 120.122 36 120.6C36 121.077 36.1896 121.535 36.5272 121.873C36.8648 122.21 37.3226 122.4 37.8 122.4C38.2774 122.4 38.7352 122.21 39.0728 121.873C39.4104 121.535 39.6 121.077 39.6 120.6C39.6 120.122 39.4104 119.665 39.0728 119.327C38.7352 118.989 38.2774 118.8 37.8 118.8Z" fill="#A589FC"/>
<path d="M144 59.3999C143.523 59.3999 143.065 59.5895 142.727 59.9271C142.39 60.2647 142.2 60.7225 142.2 61.1999C142.2 61.6773 142.39 62.1351 142.727 62.4727C143.065 62.8103 143.523 62.9999 144 62.9999C144.478 62.9999 144.935 62.8103 145.273 62.4727C145.611 62.1351 145.8 61.6773 145.8 61.1999C145.8 60.7225 145.611 60.2647 145.273 59.9271C144.935 59.5895 144.478 59.3999 144 59.3999Z" fill="white"/>
<path d="M62.9999 130.14C55.7549 130.14 49.8599 124.247 49.8599 117V62.9999C49.8599 55.7549 55.7531 49.8599 62.9999 49.8599H117C124.245 49.8599 130.14 55.7531 130.14 62.9999V117C130.14 124.245 124.247 130.14 117 130.14H62.9999Z" fill="#E84B4B"/>
<path d="M117 51.1201C123.55 51.1201 128.88 56.4499 128.88 63.0001V117C128.88 123.55 123.55 128.88 117 128.88H63.0001C56.4499 128.88 51.1201 123.55 51.1201 117V63.0001C51.1201 56.4499 56.4499 51.1201 63.0001 51.1201H117ZM117 48.6001H63.0001C55.0801 48.6001 48.6001 55.0801 48.6001 63.0001V117C48.6001 124.92 55.0801 131.4 63.0001 131.4H117C124.92 131.4 131.4 124.92 131.4 117V63.0001C131.4 55.0801 124.92 48.6001 117 48.6001Z" fill="#472B29"/>
<path d="M123.3 85.275C122.803 85.275 122.4 84.8718 122.4 84.375V77.4C122.4 76.9032 122.803 76.5 123.3 76.5C123.797 76.5 124.2 76.9032 124.2 77.4V84.375C124.2 84.8718 123.797 85.275 123.3 85.275Z" fill="#472B29"/>
<path d="M123.3 72.9C122.803 72.9 122.4 72.4968 122.4 72V68.4C122.4 67.9032 122.803 67.5 123.3 67.5C123.797 67.5 124.2 67.9032 124.2 68.4V72C124.2 72.4968 123.797 72.9 123.3 72.9Z" fill="#472B29"/>
<path d="M115.2 124.2H64.7998C59.8372 124.2 55.7998 120.162 55.7998 115.2V64.7998C55.7998 59.8372 59.8372 55.7998 64.7998 55.7998H110.475C110.972 55.7998 111.375 56.203 111.375 56.6998C111.375 57.1966 110.972 57.5998 110.475 57.5998H64.7998C60.829 57.5998 57.5998 60.829 57.5998 64.7998V115.2C57.5998 119.171 60.829 122.4 64.7998 122.4H115.2C119.171 122.4 122.4 119.171 122.4 115.2V89.3248C122.4 88.828 122.803 88.4248 123.3 88.4248C123.797 88.4248 124.2 88.828 124.2 89.3248V115.2C124.2 120.162 120.162 124.2 115.2 124.2Z" fill="#472B29"/>
<path d="M89.9985 66.6021C77.0979 66.6021 66.6021 77.0979 66.6021 89.9985C66.6021 96.3759 69.1725 102.161 73.3269 106.387C73.3701 106.44 73.406 106.495 73.4546 106.544C73.505 106.594 73.5609 106.629 73.6131 106.672C77.8377 110.826 83.6229 113.397 90.0003 113.397C102.901 113.397 113.398 102.901 113.398 89.9985C113.395 77.0979 102.899 66.6021 89.9985 66.6021ZM89.9985 71.1633C94.3707 71.1633 98.39 72.6753 101.59 75.1845L75.1827 101.59C72.6735 98.3901 71.1615 94.3707 71.1615 89.9985C71.1615 79.6125 79.6125 71.1633 89.9985 71.1633ZM89.9985 108.837C85.6263 108.837 81.6068 107.325 78.4064 104.816L104.816 78.4083C107.325 81.6087 108.837 85.6281 108.837 90.0003C108.835 100.386 100.386 108.837 89.9985 108.837Z" fill="#FDFCEE"/>
<path d="M90.0001 113.848C83.7253 113.848 77.7943 111.413 73.2979 106.994C73.2331 106.947 73.1827 106.907 73.1377 106.862C73.0927 106.819 73.0531 106.767 73.0135 106.717C68.5873 102.206 66.1519 96.2731 66.1519 90.0001C66.1519 76.8493 76.8493 66.1519 89.9983 66.1519C103.145 66.1519 113.845 76.8493 113.848 90.0001C113.848 103.151 103.151 113.848 90.0001 113.848ZM89.9983 67.0519C77.3461 67.0519 67.0519 77.3461 67.0519 90.0001C67.0519 96.0373 69.3937 101.743 73.6471 106.074L73.9297 106.351C78.2569 110.605 83.9629 112.948 90.0001 112.948C102.654 112.948 112.948 102.654 112.948 90.0001C112.945 77.3461 102.649 67.0519 89.9983 67.0519ZM89.9983 109.287C85.6693 109.287 81.5653 107.863 78.1291 105.17L77.7295 104.857L104.855 77.7313L105.169 78.1309C107.861 81.5671 109.285 85.6711 109.285 90.0019C109.285 100.634 100.634 109.287 89.9983 109.287ZM79.0885 104.771C82.2781 107.138 86.0401 108.387 89.9983 108.387C100.138 108.387 108.385 100.139 108.385 90.0001C108.385 86.0419 107.136 82.2799 104.769 79.0885L79.0885 104.771ZM75.1411 102.267L74.8279 101.867C72.1351 98.4331 70.7113 94.3291 70.7113 89.9983C70.7113 79.3621 79.3639 70.7095 89.9983 70.7095C94.3309 70.7095 98.4349 72.1333 101.867 74.8279L102.267 75.1411L75.1411 102.267ZM89.9983 71.6113C79.8607 71.6113 71.6113 79.8607 71.6113 90.0001C71.6113 93.9583 72.8587 97.7185 75.2275 100.91L100.908 75.2293C97.7203 72.8623 93.9583 71.6113 89.9983 71.6113Z" fill="#472B29"/>
</svg>
