<svg width="23" height="22" viewBox="0 0 23 22" fill="none" xmlns="http://www.w3.org/2000/svg">
<g clip-path="url(#clip0_903_12026)">
<path fill-rule="evenodd" clip-rule="evenodd" d="M22.0602 11.25C22.0602 10.47 21.9902 9.72 21.8602 9H11.5002V13.255H17.4202C17.1652 14.63 16.3902 15.795 15.2252 16.575V19.335H18.7802C20.8602 17.42 22.0602 14.6 22.0602 11.25Z" fill="#4285F4"/>
<path fill-rule="evenodd" clip-rule="evenodd" d="M11.5003 22.0001C14.4703 22.0001 16.9603 21.0151 18.7803 19.3351L15.2253 16.5751C14.2403 17.2351 12.9803 17.6251 11.5003 17.6251C8.63529 17.6251 6.21029 15.6901 5.34529 13.0901H1.67029V15.9401C3.48029 19.5351 7.20029 22.0001 11.5003 22.0001Z" fill="#34A853"/>
<path fill-rule="evenodd" clip-rule="evenodd" d="M5.34524 13.0901C5.12524 12.4301 5.00024 11.7251 5.00024 11.0001C5.00024 10.2751 5.12524 9.57006 5.34524 8.91006V6.06006H1.67024C0.925244 7.54506 0.500244 9.22506 0.500244 11.0001C0.500244 12.7751 0.925244 14.4551 1.67024 15.9401L5.34524 13.0901Z" fill="#FBBC05"/>
<path fill-rule="evenodd" clip-rule="evenodd" d="M11.5003 4.375C13.1153 4.375 14.5653 4.93 15.7053 6.02L18.8603 2.865C16.9553 1.09 14.4653 0 11.5003 0C7.20029 0 3.48029 2.465 1.67029 6.06L5.34529 8.91C6.21029 6.31 8.63529 4.375 11.5003 4.375Z" fill="#EA4335"/>
</g>
<defs>
<clipPath id="clip0_903_12026">
<rect width="22" height="22" fill="white" transform="translate(0.500244)"/>
</clipPath>
</defs>
</svg>
