<svg width="200" height="200" viewBox="0 0 200 200" fill="none" xmlns="http://www.w3.org/2000/svg">
<path fill-rule="evenodd" clip-rule="evenodd" d="M134.5 75.9993L110 102L135 126.5L126 136L100 110L75.5 137L66 128L90 102L64.5 78L73.1167 69.0986L100 94L125 67L134.5 75.9993Z" fill="#E84B4B"/>
<g filter="url(#filter0_f_672_15439)">
<path d="M177.897 100C177.897 143.022 143.022 177.897 100 177.897C56.9784 177.897 22.1025 143.022 22.1025 100C22.1025 56.9784 56.9784 22.1025 100 22.1025C143.022 22.1025 177.897 56.9784 177.897 100ZM29.8945 100C29.8945 138.718 61.2818 170.105 100 170.105C138.718 170.105 170.105 138.718 170.105 100C170.105 61.2818 138.718 29.8945 100 29.8945C61.2818 29.8945 29.8945 61.2818 29.8945 100Z" fill="#E84B4B"/>
</g>
<path d="M184 100C184 146.392 146.392 184 100 184C53.6081 184 16 146.392 16 100C16 53.6081 53.6081 16 100 16C146.392 16 184 53.6081 184 100ZM29.7887 100C29.7887 138.777 61.2234 170.211 100 170.211C138.777 170.211 170.211 138.777 170.211 100C170.211 61.2234 138.777 29.7887 100 29.7887C61.2234 29.7887 29.7887 61.2234 29.7887 100Z" fill="#E84B4B"/>
<defs>
<filter id="filter0_f_672_15439" x="0.0712395" y="0.0712395" width="199.858" height="199.858" filterUnits="userSpaceOnUse" color-interpolation-filters="sRGB">
<feFlood flood-opacity="0" result="BackgroundImageFix"/>
<feBlend mode="normal" in="SourceGraphic" in2="BackgroundImageFix" result="shape"/>
<feGaussianBlur stdDeviation="11.0156" result="effect1_foregroundBlur_672_15439"/>
</filter>
</defs>
</svg>
