<svg width="16" height="16" viewBox="0 0 16 16" fill="none" xmlns="http://www.w3.org/2000/svg">
<rect x="0.00683594" width="16.0001" height="15.9997" rx="3" fill="#94959C"/>
<path fill-rule="evenodd" clip-rule="evenodd" d="M2.00684 9.58395C2.00684 9.94802 2.23039 10.275 2.61518 10.275C3.34551 10.275 3.83135 10.075 4.4507 9.80406C5.1326 9.50583 5.68859 9.2022 6.33542 8.83863C6.43673 8.78164 6.54745 8.73349 6.63907 8.66249C6.66846 8.64032 6.69445 8.61445 6.71629 8.5856C6.72362 8.57577 6.74561 8.55121 6.74456 8.53893C6.74352 8.52664 6.73645 8.53303 6.72938 8.53401C6.70619 8.53712 6.6832 8.54147 6.66054 8.54703C6.59431 8.56226 6.52965 8.58167 6.46369 8.60108C6.37652 8.62564 6.28961 8.65389 6.20192 8.68018C6.09983 8.71113 5.99722 8.74135 5.89434 8.77009C5.78309 8.8008 5.67132 8.83003 5.5585 8.85582C5.44567 8.88162 5.32893 8.90495 5.2127 8.92338C5.10091 8.94139 4.98805 8.95304 4.87476 8.95826C4.77064 8.96335 4.66624 8.95907 4.56299 8.94549C4.47237 8.93388 4.38413 8.90953 4.30123 8.87326C3.43399 8.48021 4.91874 6.84463 5.23757 6.4786C6.15663 5.42227 7.27595 4.54822 8.50521 3.8255C8.82646 3.63577 9.15795 3.46178 9.49836 3.30421C9.80148 3.16443 10.1122 3.03546 10.4384 2.9512C10.7554 2.86915 11.1014 2.8242 11.4273 2.88586C11.5303 2.90521 11.6301 2.93691 11.7244 2.98019C11.8065 3.01831 11.8835 3.0653 11.954 3.12021C12.0289 3.17843 12.0982 3.24108 12.1791 3.29217C12.2008 3.30593 12.2197 3.30593 12.2315 3.28308C12.2393 3.2681 12.2472 3.25262 12.2545 3.23715C12.2867 3.16822 12.3129 3.097 12.333 3.02416C12.4074 2.76204 12.4307 2.42304 12.2213 2.2076C11.954 1.9327 11.5833 1.98994 11.2315 2.0489C10.291 2.20293 9.36983 2.65543 8.53689 3.0787C6.82833 3.94562 5.22396 5.08474 3.9269 6.44617C3.30804 7.09027 2.77412 7.80199 2.33666 8.56595C2.28105 8.66913 2.23108 8.7749 2.18693 8.88285C2.09139 9.10369 2.00684 9.34296 2.00684 9.58395Z" fill="white"/>
<path fill-rule="evenodd" clip-rule="evenodd" d="M7.92196 7.90085C8.00808 7.93819 8.04447 7.906 8.14106 7.86768L8.87008 7.58886C9.163 7.49305 10.3297 7.15994 10.6535 7.50067C10.9773 7.8414 10.7548 8.40297 10.575 8.75573C10.4347 9.02989 10.237 9.27284 10.0284 9.50376C9.80538 9.74893 9.5889 10.0079 9.3342 10.225C9.2164 10.3272 9.09494 10.4255 8.97505 10.5237L8.47351 10.9413C8.39864 11.0025 8.32168 11.0617 8.24681 11.1192C7.42827 11.7446 5.76735 12.8523 4.83494 13.3856C4.67421 13.4778 3.89074 13.9138 3.82373 13.9998C4.14178 13.9998 4.9886 13.5434 5.27523 13.4102C6.02467 13.0584 7.30288 12.4114 7.99238 11.9937C8.21645 11.8579 8.41461 11.7498 8.6392 11.6093C8.8638 11.4688 9.05803 11.3452 9.26745 11.2067C9.82809 10.8308 10.3651 10.4248 10.8757 9.99065C11.3503 9.59146 11.7919 9.15542 12.1634 8.66779C12.2665 8.53219 12.3641 8.39298 12.456 8.25017C12.7178 7.84091 13.4688 6.34927 12.5301 6.04171C11.7773 5.79605 10.3902 6.47751 9.87448 6.75878L8.87715 7.29505C8.70936 7.39283 7.99709 7.80455 7.92196 7.90085Z" fill="white"/>
<path fill-rule="evenodd" clip-rule="evenodd" d="M11.4756 4.68563C11.4756 5.04429 11.8735 5.329 12.2242 5.4253C13.4891 5.77315 14.6325 4.74139 13.6153 4.11963C12.8509 3.65288 11.4756 3.98501 11.4756 4.68464V4.68563Z" fill="white"/>
</svg>
