<svg width="448" height="270" viewBox="0 0 448 270" fill="none" xmlns="http://www.w3.org/2000/svg">
<rect x="0.128165" y="0.128165" width="408.524" height="215.489" rx="4.99842" fill="#1E1E1E"/>
<rect x="0.128165" y="0.128165" width="408.524" height="215.489" rx="4.99842" stroke="white" stroke-width="0.256329"/>
<path fill-rule="evenodd" clip-rule="evenodd" d="M19.3757 7.45952L18.4227 6.73877L16.6982 9.01904L17.6512 9.73979L19.3757 7.45952ZM16.3387 6.9686L15.2302 6.89656L15.1059 8.80872L16.2144 8.88076L16.3387 6.9686ZM19.7635 9.21287L20.1786 10.1798L18.3786 10.9525L17.9635 9.98559L19.7635 9.21287ZM16.3394 13.0796C16.7925 13.1819 17.1505 13.4084 17.4136 13.7591C17.6839 14.1026 17.8191 14.4971 17.8191 14.9429C17.8191 15.6005 17.5926 16.1156 17.1396 16.4883C16.6865 16.8609 16.0508 17.0473 15.2324 17.0473H11.4072V9.32014H15.1119C15.901 9.32014 16.5185 9.49551 16.9642 9.84624C17.4172 10.197 17.6437 10.6902 17.6437 11.3259C17.6437 11.7789 17.5232 12.1589 17.282 12.4658C17.0482 12.7654 16.734 12.97 16.3394 13.0796ZM13.5555 12.3891H14.6406C15.1813 12.3891 15.4516 12.1662 15.4516 11.7205C15.4516 11.2601 15.1813 11.03 14.6406 11.03H13.5555V12.3891ZM14.805 15.3155C15.3457 15.3155 15.6161 15.089 15.6161 14.636C15.6161 14.4021 15.543 14.2231 15.3968 14.0989C15.258 13.9747 15.0571 13.9126 14.794 13.9126H13.5555V15.3155H14.805ZM37.2769 12.417C37.495 12.0997 37.7594 11.8485 38.0701 11.6635C38.3808 11.4784 38.7146 11.3858 39.0715 11.3858V13.4581H38.5262C38.1031 13.4581 37.7892 13.5407 37.5843 13.706C37.3793 13.8712 37.2769 14.1587 37.2769 14.5686V16.9977H35.3336V11.4354H37.2769V12.417ZM24.177 11.4354V16.9977H22.2238V16.2045C22.0585 16.4557 21.8305 16.6606 21.5396 16.8193C21.2488 16.9713 20.915 17.0473 20.5382 17.0473C19.8905 17.0473 19.3782 16.8358 19.0014 16.4127C18.6313 15.9831 18.4462 15.4014 18.4462 14.6677V11.4354H20.3796V14.4198C20.3796 14.7371 20.4622 14.9883 20.6275 15.1734C20.7993 15.3518 21.0241 15.4411 21.3017 15.4411C21.5859 15.4411 21.8107 15.3518 21.9759 15.1734C22.1412 14.9883 22.2238 14.7371 22.2238 14.4198V11.4354H24.177ZM27.1272 15.3816H29.4969V16.9977H24.9856V15.4609L27.1966 13.0516H25.0054V11.4354H29.4176V12.9722L27.1272 15.3816ZM34.5222 15.3816H32.1525L34.4428 12.9722V11.4354H30.0307V13.0516H32.2219L30.0108 15.4609V16.9977H34.5222V15.3816Z" fill="#A589FC"/>
<path d="M371.686 9.22248C371.686 7.89176 372.764 6.81299 374.095 6.81299H395.097C396.428 6.81299 397.507 7.89175 397.507 9.22248V14.9435C397.507 16.2742 396.428 17.353 395.097 17.353H374.095C372.764 17.353 371.686 16.2742 371.686 14.9435V9.22248Z" fill="#E84B4B"/>
<path d="M11.3555 32.9292C11.3555 29.1665 14.4058 26.1162 18.1685 26.1162H95.9504C99.7131 26.1162 102.763 29.1665 102.763 32.9292V193.035C102.763 196.798 99.7131 199.848 95.9503 199.848H18.1685C14.4058 199.848 11.3555 196.798 11.3555 193.035V32.9292Z" fill="#2C2C2C"/>
<path d="M57.1872 43.7165C74.1902 43.7165 87.9739 57.5002 87.9739 74.5033C87.9739 91.5063 74.1902 105.29 57.1872 105.29C40.1841 105.29 26.4004 91.5063 26.4004 74.5033C26.4004 57.5002 40.1841 43.7165 57.1872 43.7165ZM57.1872 99.1709C70.8107 99.1709 81.8548 88.1268 81.8548 74.5033C81.8548 60.8797 70.8107 49.8356 57.1872 49.8356C43.5636 49.8356 32.5195 60.8797 32.5195 74.5033C32.5195 88.1268 43.5636 99.1709 57.1872 99.1709Z" fill="#7D49F8"/>
<rect x="18.1685" y="135.692" width="52.8008" height="5.39363" rx="2.69682" fill="#3B3C3F"/>
<rect x="18.1685" y="142.789" width="42.2974" height="5.39363" rx="2.69682" fill="#3B3C3F"/>
<rect x="18.1685" y="154.996" width="13.626" height="4.54201" rx="2.271" fill="#3B3C3F"/>
<rect x="18.1685" y="161.809" width="13.626" height="13.0583" rx="6.52914" fill="#3B3C3F"/>
<rect x="36.3364" y="165.216" width="15.897" height="6.24526" rx="3.12263" fill="#3B3C3F"/>
<path d="M109.577 32.9292C109.577 29.1665 112.627 26.1162 116.39 26.1162H390.613C394.376 26.1162 397.426 29.1665 397.426 32.9292V193.035C397.426 196.798 394.376 199.848 390.613 199.848H116.39C112.627 199.848 109.577 196.798 109.577 193.035V32.9292Z" fill="#2C2C2C"/>
<rect x="118.66" y="44.2842" width="20.7229" height="5.39363" rx="2.69682" fill="#3B3C3F"/>
<rect x="118.66" y="51.665" width="189.913" height="7.38076" rx="3.69038" fill="#3B3C3F"/>
<path d="M118.66 81.188C118.66 78.6795 120.694 76.646 123.202 76.646H383.8C386.308 76.646 388.342 78.6795 388.342 81.188V92.543C388.342 95.0515 386.308 97.085 383.8 97.085H123.202C120.694 97.085 118.66 95.0515 118.66 92.543V81.188Z" fill="#434349"/>
<rect x="123.202" y="83.7437" width="45.9878" height="6.52914" rx="3.26457" fill="#3B3C3F"/>
<path d="M118.766 106.219C118.766 103.711 120.8 101.677 123.308 101.677H383.906C386.414 101.677 388.448 103.711 388.448 106.219V117.574C388.448 120.083 386.414 122.116 383.906 122.116H123.308C120.8 122.116 118.766 120.083 118.766 117.574V106.219Z" fill="#434349"/>
<rect x="123.308" y="108.775" width="61.8848" height="6.52914" rx="3.26457" fill="#3B3C3F"/>
<path d="M118.766 131.201C118.766 128.692 120.8 126.659 123.308 126.659H383.906C386.414 126.659 388.448 128.692 388.448 131.201V142.556C388.448 145.064 386.414 147.098 383.906 147.098H123.308C120.8 147.098 118.766 145.064 118.766 142.556V131.201Z" fill="#434349"/>
<rect x="123.308" y="133.755" width="88.0014" height="6.52914" rx="3.26457" fill="#3B3C3F"/>
<path d="M118.766 156.182C118.766 153.673 120.8 151.64 123.308 151.64H383.906C386.414 151.64 388.448 153.673 388.448 156.182V167.537C388.448 170.045 386.414 172.079 383.906 172.079H123.308C120.8 172.079 118.766 170.045 118.766 167.537V156.182Z" fill="#434349"/>
<rect x="123.308" y="158.736" width="67.5624" height="6.52914" rx="3.26457" fill="#3B3C3F"/>
<g clip-path="url(#clip0_903_32862)">
<rect x="338.354" y="41.0127" width="108.754" height="228.987" rx="9.39873" fill="#1E1E1E"/>
<path fill-rule="evenodd" clip-rule="evenodd" d="M346.784 51.1988C346.873 51.2874 346.873 51.4311 346.784 51.5198L344.906 53.3984L346.784 55.2771C346.873 55.3657 346.873 55.5094 346.784 55.598C346.696 55.6867 346.552 55.6867 346.464 55.598L344.424 53.5589C344.336 53.4703 344.336 53.3266 344.424 53.2379L346.464 51.1988C346.552 51.1102 346.696 51.1102 346.784 51.1988Z" fill="white"/>
<path fill-rule="evenodd" clip-rule="evenodd" d="M358.728 48.5342L357.883 47.895L356.354 49.9172L357.199 50.5564L358.728 48.5342ZM356.035 48.0988L355.052 48.0349L354.942 49.7307L355.925 49.7946L356.035 48.0988ZM359.072 50.0891L359.44 50.9466L357.844 51.6318L357.476 50.7743L359.072 50.0891ZM356.036 53.5181C356.437 53.6089 356.755 53.8097 356.988 54.1208C357.228 54.4253 357.348 54.7753 357.348 55.1705C357.348 55.7537 357.147 56.2106 356.745 56.541C356.343 56.8715 355.78 57.0368 355.054 57.0368H351.662V50.1842H354.947C355.647 50.1842 356.194 50.3397 356.59 50.6508C356.991 50.9618 357.192 51.3992 357.192 51.963C357.192 52.3647 357.085 52.7017 356.871 52.9738C356.664 53.2395 356.386 53.4209 356.036 53.5181ZM353.567 52.9058H354.529C355.009 52.9058 355.248 52.7082 355.248 52.3129C355.248 51.9046 355.009 51.7005 354.529 51.7005H353.567V52.9058ZM354.675 55.501C355.154 55.501 355.394 55.3001 355.394 54.8984C355.394 54.691 355.329 54.5323 355.2 54.4221C355.077 54.3119 354.898 54.2569 354.665 54.2569H353.567V55.501H354.675ZM374.603 52.9306C374.797 52.6492 375.031 52.4265 375.307 52.2623C375.582 52.0982 375.878 52.0161 376.195 52.0161V53.8538H375.711C375.336 53.8538 375.058 53.9271 374.876 54.0736C374.694 54.2202 374.603 54.4752 374.603 54.8386V56.9928H372.88V52.0601H374.603V52.9306ZM362.986 52.0601V56.9928H361.254V56.2894C361.107 56.5122 360.905 56.6939 360.647 56.8346C360.389 56.9694 360.093 57.0368 359.759 57.0368C359.185 57.0368 358.73 56.8492 358.396 56.4741C358.068 56.093 357.904 55.5772 357.904 54.9265V52.0601H359.618V54.7067C359.618 54.9881 359.692 55.2108 359.838 55.375C359.991 55.5332 360.19 55.6124 360.436 55.6124C360.688 55.6124 360.888 55.5332 361.034 55.375C361.181 55.2108 361.254 54.9881 361.254 54.7067V52.0601H362.986ZM365.602 55.5596H367.704V56.9928H363.703V55.63L365.664 53.4933H363.721V52.0601H367.633V53.423L365.602 55.5596ZM372.16 55.5596H370.059L372.09 53.423V52.0601H368.177V53.4933H370.12L368.16 55.63V56.9928H372.16V55.5596Z" fill="#A589FC"/>
<g clip-path="url(#clip1_903_32862)">
<path d="M338.354 66.0867C338.354 64.7519 339.437 63.6699 340.771 63.6699H444.692C446.026 63.6699 447.108 64.7519 447.108 66.0867V383.285C447.108 384.62 446.026 385.702 444.692 385.702H340.771C339.437 385.702 338.354 384.62 338.354 383.285V66.0867Z" fill="#2C2C2C"/>
<circle cx="349.23" cy="250.969" r="6.04188" fill="#3B3C3F"/>
<rect x="357.688" y="248.854" width="38.0639" height="4.22932" rx="2.11466" fill="#3B3C3F"/>
<rect x="415.993" y="248.854" width="20.8445" height="4.22932" rx="2.11466" fill="#3B3C3F"/>
<circle cx="349.23" cy="268.49" r="6.04188" fill="#3B3C3F"/>
<rect x="357.688" y="266.424" width="31.4178" height="4.13158" rx="2.06579" fill="#3B3C3F"/>
<rect x="415.69" y="266.375" width="20.8445" height="4.22932" rx="2.11466" fill="#3B3C3F"/>
</g>
<rect x="426.868" y="101.733" width="5.73979" height="4.22932" rx="2.11466" fill="#3B3C3F"/>
<rect x="402.097" y="143.724" width="5.73979" height="4.22932" rx="2.11466" fill="#3B3C3F"/>
<rect x="378.231" y="117.441" width="5.73979" height="4.22932" rx="2.11466" fill="#3B3C3F"/>
<rect x="354.366" y="131.338" width="5.73979" height="4.22932" rx="2.11466" fill="#3B3C3F"/>
<path d="M349.26 139.293C349.26 138.381 349.999 137.642 350.911 137.642H362.713C363.625 137.642 364.364 138.381 364.364 139.293V169.226H349.26V139.293Z" fill="url(#paint0_linear_903_32862)"/>
<rect x="348.082" y="172.528" width="17.4607" height="3.02094" rx="1.51047" fill="#3B3C3F"/>
<rect x="348.082" y="176.758" width="17.4607" height="3.02094" rx="1.51047" fill="#3B3C3F"/>
<rect x="348.082" y="180.987" width="13.0955" height="3.02094" rx="1.51047" fill="#3B3C3F"/>
<path d="M373.206 125.066C373.206 124.153 373.945 123.414 374.858 123.414H386.659C387.571 123.414 388.311 124.153 388.311 125.066V169.242H373.206V125.066Z" fill="url(#paint1_linear_903_32862)"/>
<rect x="371.958" y="172.544" width="13.2921" height="3.02094" rx="1.51047" fill="#3B3C3F"/>
<rect x="372.099" y="176.896" width="17.4607" height="3.02094" rx="1.51047" fill="#3B3C3F"/>
<rect x="372.099" y="181.125" width="13.0955" height="3.02094" rx="1.51047" fill="#3B3C3F"/>
<path d="M397.152 151.665C397.152 150.753 397.891 150.013 398.803 150.013H410.605C411.517 150.013 412.257 150.753 412.257 151.665V169.211H397.152V151.665Z" fill="url(#paint2_linear_903_32862)"/>
<rect x="395.148" y="172.514" width="17.4607" height="3.02094" rx="1.51047" fill="#3B3C3F"/>
<rect x="395.229" y="176.652" width="19.0319" height="3.02094" rx="1.51047" fill="#3B3C3F"/>
<rect x="395.148" y="180.972" width="13.0955" height="3.02094" rx="1.51047" fill="#3B3C3F"/>
<path d="M421.923 109.601C421.923 108.689 422.663 107.949 423.575 107.949H435.377C436.289 107.949 437.028 108.689 437.028 109.601V169.259H421.923V109.601Z" fill="url(#paint3_linear_903_32862)"/>
<rect x="420.746" y="172.562" width="17.4607" height="3.02094" rx="1.51047" fill="#3B3C3F"/>
<rect x="420.746" y="176.792" width="17.4607" height="3.02094" rx="1.51047" fill="#3B3C3F"/>
<path d="M343.188 169.147H442.275" stroke="white" stroke-width="0.206431"/>
<rect x="343.188" y="69.7114" width="50.7518" height="6.64607" rx="3.32304" fill="#3B3C3F"/>
<rect x="343.188" y="233.446" width="31.4178" height="4.13158" rx="2.06579" fill="#3B3C3F"/>
<rect x="343.188" y="83.0034" width="92.7429" height="4.13158" rx="2.06579" fill="#3B3C3F"/>
<rect x="343.188" y="88.2378" width="31.4178" height="4.13158" rx="2.06579" fill="#3B3C3F"/>
<path d="M342.166 201.077C342.166 198.933 343.903 197.196 346.047 197.196H438.58C440.723 197.196 442.461 198.933 442.461 201.077V208.565C442.461 210.708 440.723 212.446 438.58 212.446H346.047C343.903 212.446 342.166 210.708 342.166 208.565V201.077Z" fill="#A589FC"/>
</g>
<rect x="338.483" y="41.1409" width="108.498" height="228.731" rx="9.27057" stroke="white" stroke-width="0.256329"/>
<defs>
<linearGradient id="paint0_linear_903_32862" x1="356.812" y1="137.642" x2="356.812" y2="182.465" gradientUnits="userSpaceOnUse">
<stop stop-color="#A589FC"/>
<stop offset="1" stop-color="#7D49F8"/>
</linearGradient>
<linearGradient id="paint1_linear_903_32862" x1="380.758" y1="123.414" x2="380.758" y2="188.452" gradientUnits="userSpaceOnUse">
<stop stop-color="#A589FC"/>
<stop offset="1" stop-color="#7D49F8"/>
</linearGradient>
<linearGradient id="paint2_linear_903_32862" x1="404.704" y1="150.013" x2="404.704" y2="177.259" gradientUnits="userSpaceOnUse">
<stop stop-color="#A589FC"/>
<stop offset="1" stop-color="#7D49F8"/>
</linearGradient>
<linearGradient id="paint3_linear_903_32862" x1="429.476" y1="107.949" x2="429.476" y2="194.96" gradientUnits="userSpaceOnUse">
<stop stop-color="#A589FC"/>
<stop offset="1" stop-color="#7D49F8"/>
</linearGradient>
<clipPath id="clip0_903_32862">
<rect x="338.354" y="41.0127" width="108.754" height="228.987" rx="9.39873" fill="white"/>
</clipPath>
<clipPath id="clip1_903_32862">
<path d="M338.354 66.0867C338.354 64.7519 339.437 63.6699 340.771 63.6699H444.692C446.026 63.6699 447.108 64.7519 447.108 66.0867V383.285C447.108 384.62 446.026 385.702 444.692 385.702H340.771C339.437 385.702 338.354 384.62 338.354 383.285V66.0867Z" fill="white"/>
</clipPath>
</defs>
</svg>
