<svg width="547" height="347" viewBox="0 0 547 347" fill="none" xmlns="http://www.w3.org/2000/svg">
<path d="M546.723 329.47L515.149 284.559L510.627 278.131C510.497 277.951 510.315 277.815 510.106 277.741C509.897 277.667 509.671 277.657 509.456 277.714C509.242 277.771 509.049 277.892 508.905 278.06C508.76 278.228 508.67 278.437 508.646 278.657L291.538 281.222L67.2098 278.657C67.1782 278.462 67.0967 278.278 66.9731 278.123C66.8496 277.968 66.6882 277.848 66.5046 277.774C66.321 277.7 66.1214 277.675 65.9251 277.701C65.7288 277.726 65.5425 277.802 65.3842 277.921L8.89331 322.935L0.955434 329.26C0.222309 329.835 0.857684 331.037 1.69143 331.037H523.737C530.787 331.037 537.848 331.14 544.9 331.037H545.826C546.008 331.035 546.187 330.985 546.344 330.893C546.502 330.801 546.632 330.669 546.723 330.51C546.814 330.352 546.861 330.172 546.861 329.99C546.861 329.807 546.813 329.628 546.723 329.47ZM357.378 322.162H357.116C355.118 322.202 353.114 322.162 351.119 322.162H202.795C202.61 322.169 202.426 322.122 202.268 322.026C202.109 321.93 201.982 321.789 201.904 321.621C201.83 321.531 201.776 321.426 201.744 321.314C201.712 321.203 201.703 321.085 201.717 320.97C201.732 320.854 201.77 320.743 201.828 320.642C201.887 320.542 201.965 320.454 202.059 320.385L202.088 320.359C202.132 320.316 202.18 320.276 202.231 320.241L204.005 318.783L212.153 312.088C212.636 311.691 213.165 311.113 213.806 311.053C213.982 311.035 214.166 311.053 214.341 311.053H344.003C344.531 311.025 345.06 311.025 345.588 311.053C346.292 311.127 346.873 311.768 347.41 312.182L351.461 315.29L357.893 320.221C358.082 320.341 358.228 320.518 358.31 320.726C358.392 320.935 358.405 321.164 358.347 321.38C358.29 321.597 358.165 321.789 357.991 321.93C357.816 322.07 357.602 322.151 357.378 322.162Z" fill="#59679C"/>
<path d="M185.514 229.725L178.367 246.975L189.338 246.946C189.289 244.885 189.177 238.637 189.421 229.575L185.514 229.725ZM233.71 52.6795C229.989 55.0813 226.435 57.7334 223.073 60.6174L235.723 73.8424C244.335 65.1131 255.106 58.8219 266.94 55.6092L263.875 40.2423C253.157 42.551 242.941 46.7634 233.71 52.6795ZM278.031 38.2873C273.958 38.5418 269.906 39.0584 265.899 39.834L268.946 55.1175C273.418 54.0836 277.978 53.4781 282.565 53.3092C289.922 52.9654 297.285 53.8684 304.34 55.98L306.497 40.4982C297.159 38.432 287.577 37.6877 278.031 38.2873ZM171.481 185.686L172.145 185.717L177.464 164.675C176.484 164.546 175.505 164.406 174.528 164.255C173.296 171.368 172.28 178.512 171.481 185.686ZM171.257 187.759C171.164 188.601 171.076 189.445 170.992 190.289L171.628 187.77H171.32L171.257 187.759ZM218.996 64.2859C219.128 65.0218 219.027 65.7804 218.709 66.4565C217.596 68.1601 216.229 69.6833 214.655 70.9732C214.928 71.5482 215.172 72.1232 215.399 72.6982C216.977 76.6841 218.092 80.8378 218.723 85.0779C219.197 87.0435 219.276 89.0837 218.955 91.0801C218.634 93.0764 217.92 94.9891 216.854 96.7073C215.864 98.0187 214.58 99.0791 213.104 99.8027C211.629 100.526 210.004 100.893 208.361 100.873L207.735 102.132C208.425 102.654 209.023 103.286 209.506 104.004L213.663 106.232C218.809 94.8906 225.761 84.4588 234.248 75.3432L221.489 61.9945C220.643 62.7363 219.815 63.4982 218.996 64.2859ZM212.539 108.659C212.619 108.478 212.694 108.294 212.777 108.112L212.03 107.713C212.223 108.018 212.386 108.348 212.539 108.659ZM189.487 227.488C189.565 224.964 189.671 222.247 189.815 219.363L186.396 227.609L189.487 227.488Z" fill="#FFD35C"/>
<path d="M411.709 2.08496H66.45V247.34C71.3691 247.233 76.2997 247.305 81.2188 247.288L113.706 247.17C128.035 247.12 142.364 247.074 156.693 247.032L167.894 202.648C168.541 193.41 169.478 184.193 170.769 175.019C171.287 171.31 171.862 167.608 172.494 163.913C172.109 163.847 171.727 163.786 171.344 163.715L180.36 124.218C180.36 124.218 178.319 123.007 173.13 128.654C168.464 133.731 167.434 155.449 167.276 159.761C167.342 159.829 167.397 159.907 167.44 159.991L167.469 160.049C167.509 160.141 167.537 160.237 167.552 160.336C167.583 160.491 167.588 160.649 167.567 160.805C167.38 162.061 167.158 163.315 166.923 164.563C166.52 166.684 166.06 168.806 165.462 170.888C165.141 172.561 164.411 174.129 163.337 175.453C163.062 175.726 162.714 175.915 162.335 175.996C161.956 176.078 161.562 176.049 161.198 175.913C160.713 175.696 160.281 175.375 159.933 174.973C159.585 174.571 159.33 174.096 159.186 173.584L159.169 173.53C158.843 174.273 158.351 174.931 157.731 175.453C157.229 175.862 156.591 176.065 155.945 176.022C155.299 175.978 154.694 175.69 154.252 175.217C153.857 174.788 153.551 174.285 153.35 173.737C153.229 173.955 153.1 174.168 152.962 174.372C152.72 174.814 152.379 175.194 151.965 175.482C151.551 175.77 151.077 175.958 150.578 176.031C150.199 176.057 149.82 175.973 149.488 175.788C149.156 175.604 148.884 175.326 148.707 174.99C148.054 173.369 147.836 171.605 148.074 169.873C148.21 166.742 148.553 163.623 149.1 160.538C149.1 160.538 152.286 117.809 160.678 111.553C169.292 105.47 179.311 101.675 189.793 100.525C189.925 100.078 190.08 99.6372 190.256 99.2053C191.464 96.0428 192.918 92.958 194.408 89.9076C193.778 89.6887 193.19 89.3671 192.665 88.956C192.077 88.501 191.602 87.9158 191.279 87.2463C190.955 86.5768 190.791 85.8413 190.799 85.0977C190.842 83.97 191.314 82.9013 192.119 82.1106C190.275 79.7222 189.156 76.8541 188.896 73.8478C188.479 66.6258 198.111 58.4062 201.834 59.9846C201.834 59.9846 203.245 60.2347 203.826 62.3076C204.565 60.4724 205.777 58.8658 207.338 57.6512C208.9 56.4367 210.755 55.6575 212.716 55.3932C213.316 55.2845 213.934 55.3216 214.518 55.5013C215.101 55.681 215.633 55.9982 216.069 56.426C216.504 56.8539 216.83 57.38 217.02 57.9602C217.21 58.5404 217.258 59.1578 217.16 59.7603C217.011 60.5509 216.774 61.3224 216.453 62.0603C216.918 62.1698 217.362 62.3543 217.767 62.6066C225.199 55.524 233.688 49.6413 242.929 45.1697C249.52 42.0406 256.457 39.7004 263.597 38.1978C263.651 38.0109 263.756 37.8424 263.899 37.7105C264.042 37.5786 264.218 37.4883 264.409 37.4495C264.6 37.4108 264.798 37.4249 264.981 37.4904C265.164 37.5559 265.326 37.6703 265.449 37.8212C279.134 35.2153 293.207 35.4305 306.806 38.4537L306.849 38.1317C307.033 36.8092 309.04 37.3756 308.861 38.6866L308.827 38.9252C318.161 41.1776 327.109 44.8042 335.377 49.6863C338.829 51.7346 342.143 54.0058 345.299 56.4857C346.09 55.5513 347.754 56.5576 347.024 57.6357L346.915 57.7967C355.668 64.9773 363.041 73.6917 368.673 83.5136C377.747 99.7877 384.781 117.119 389.614 135.114C394.642 153.48 397.956 172.273 399.513 191.251C401.068 209.685 401.235 228.209 400.013 246.667C414.618 246.682 429.223 246.711 443.828 246.753C457.187 246.797 470.547 246.871 483.908 246.975C491.935 247.044 499.965 247.113 507.989 247.322V2.08496H411.709ZM287.169 19.5103C286.351 19.4662 285.558 19.2145 284.864 18.7788C284.17 18.3432 283.598 17.738 283.203 17.0203C282.808 16.3025 282.602 15.496 282.605 14.6767C282.608 13.8573 282.819 13.0522 283.219 12.3372C283.654 11.6516 284.259 11.0911 284.977 10.7109C285.694 10.3306 286.498 10.1438 287.309 10.1688C288.12 10.1938 288.911 10.4297 289.603 10.8534C290.296 11.277 290.866 11.8738 291.257 12.5848C291.649 13.2958 291.848 14.0966 291.836 14.9082C291.824 15.7198 291.601 16.5143 291.188 17.2133C290.776 17.9123 290.188 18.4918 289.483 18.8946C288.779 19.2974 287.981 19.5096 287.169 19.5103Z" fill="#A589FC"/>
<path d="M396.081 178.636C395.04 170.264 393.662 161.938 391.947 153.658C384.997 157.815 377.771 161.49 370.318 164.658C372.173 175.241 373.619 185.892 374.654 196.587L397.74 195.644C397.329 189.962 396.776 184.291 396.081 178.636ZM376.767 229.627C377.029 238.281 376.971 244.355 376.934 246.661H397.904C398.166 242.582 398.375 238.499 398.511 234.411C398.565 232.735 398.594 231.059 398.628 229.38C391.342 229.061 384.044 229.143 376.767 229.627ZM374.855 198.66C375.887 209.669 376.428 219.57 376.701 227.548C384.015 227.063 391.351 226.981 398.674 227.304C398.812 217.437 398.551 207.576 397.89 197.72L374.855 198.66ZM324.712 46.4952C319.494 44.1678 314.075 42.3174 308.523 40.9666L306.344 56.6267C316.55 60.2554 325.706 66.3429 333.001 74.351L344.087 58.1935C338.129 53.5191 331.623 49.5905 324.712 46.4952ZM384.472 125.333C378.307 130.539 371.746 135.255 364.847 139.438C366.836 147.084 368.538 154.801 369.95 162.573C377.381 159.389 384.58 155.691 391.496 151.505C389.583 142.671 387.239 133.937 384.472 125.333ZM373.751 97.9979C373.103 96.6218 372.442 95.2475 371.767 93.8752L371.744 93.8953C365.734 97.5861 360.099 101.858 354.923 106.649C354.752 106.816 354.527 106.917 354.288 106.933C354.049 106.95 353.813 106.88 353.62 106.738C357.951 116.651 361.516 126.882 364.284 137.339C371.144 133.152 377.66 128.427 383.773 123.209C380.927 114.617 377.581 106.199 373.751 97.9979ZM370.85 92.0208C368.016 86.2354 364.697 80.7004 360.929 75.4752C356.532 69.5446 351.421 64.1787 345.711 59.4988L334.447 75.9237C342.146 84.848 348.454 94.8837 353.157 105.691C353.197 105.494 353.298 105.314 353.445 105.177C358.754 100.263 364.531 95.8818 370.695 92.0955C370.745 92.0666 370.797 92.0417 370.85 92.0208Z" fill="#FFD35C"/>
<path d="M508.999 0H65.3923C65.117 0.00373574 64.854 0.114974 64.6595 0.309968C64.4651 0.504962 64.3545 0.76825 64.3516 1.04362V277.972C64.356 278.247 64.4671 278.509 64.6613 278.703C64.8555 278.897 65.1177 279.009 65.3923 279.013C122.561 280.289 179.74 281.074 236.929 281.368C295.28 281.665 353.633 281.445 411.988 280.709C444.328 280.303 476.665 279.737 508.999 279.013C509.235 279.014 509.463 278.931 509.643 278.78C509.771 278.689 509.874 278.567 509.943 278.426C510.013 278.285 510.046 278.129 510.04 277.972V1.04362C510.037 0.76825 509.926 0.504962 509.732 0.309968C509.537 0.114974 509.274 0.00373574 508.999 0ZM507.958 109.227V247.322C499.934 247.112 491.904 247.034 483.877 246.974C470.518 246.857 457.158 246.783 443.797 246.753C429.192 246.705 414.587 246.676 399.982 246.666C401.204 228.208 401.037 209.684 399.482 191.251C397.925 172.273 394.611 153.48 389.583 135.113C384.754 117.119 377.726 99.7878 368.656 83.513C363.028 73.6844 355.657 64.9631 346.904 57.776L347.013 57.615C347.749 56.5426 346.084 55.5364 345.288 56.465C342.132 53.9851 338.818 51.7138 335.366 49.6656C327.098 44.7835 318.15 41.1569 308.816 38.9045L308.85 38.6659C309.031 37.3549 307.025 36.7885 306.838 38.111L306.795 38.433C293.196 35.4098 279.123 35.1946 265.438 37.8005C265.315 37.6496 265.153 37.5352 264.97 37.4697C264.786 37.4042 264.589 37.39 264.398 37.4288C264.207 37.4676 264.031 37.5579 263.888 37.6898C263.745 37.8217 263.64 37.9902 263.586 38.1771C256.446 39.6834 249.508 42.0274 242.918 45.1605C233.677 49.6321 225.188 55.5148 217.756 62.5974C218.067 62.7788 218.338 63.0213 218.553 63.3104C218.768 63.5994 218.922 63.929 219.006 64.2792C219.826 63.5001 220.654 62.7296 221.499 61.9792L234.258 75.3279C225.772 84.4435 218.82 94.8753 213.673 106.217L209.516 103.989C209.675 104.209 209.828 104.431 209.973 104.653C210.261 105.07 210.508 105.498 210.758 105.932C211.236 106.488 211.667 107.081 212.049 107.706L212.796 108.106C212.713 108.287 212.638 108.471 212.558 108.652C212.65 108.836 212.753 109.011 212.845 109.198C212.937 109.385 212.978 109.506 213.047 109.661C218.665 118.616 222.348 128.647 223.859 139.11L237.996 130.516L246.719 142.729C246.719 142.729 225.955 163.829 221.485 161.624C220.974 161.336 220.506 160.979 220.093 160.563C219.932 161.713 219.754 162.863 219.544 164.013C219.523 164.134 219.479 164.25 219.415 164.355L235.966 176.114C235.613 174.121 235.133 172.154 234.529 170.223C234.129 168.938 236.141 168.394 236.541 169.668C239.25 178.414 239.523 187.732 237.329 196.621C236.649 199.403 235.715 202.116 234.537 204.726C233.507 207.196 231.92 209.395 229.9 211.151C228.871 211.991 227.39 210.525 228.428 209.679C230.583 207.766 232.221 205.341 233.192 202.627C235.572 196.756 236.763 190.47 236.696 184.135C236.662 191.795 234.725 199.326 231.058 206.051C215.821 187.76 203.959 185.242 203.959 185.242L189.831 219.362C189.687 222.237 189.581 224.963 189.503 227.487L186.413 227.608L185.55 229.724L189.457 229.572C189.287 235.36 189.259 241.152 189.374 246.942L178.403 246.971L177.828 248.388L177.54 249.055L200.066 248.992C219.702 248.94 239.339 248.894 258.978 248.854C279.308 248.814 299.638 248.782 319.968 248.759C339.652 248.738 359.336 248.73 379.02 248.733C396.725 248.733 414.427 248.756 432.127 248.8C446.56 248.838 460.99 248.901 475.419 248.989C485.125 249.055 494.831 249.127 504.534 249.323C505.684 249.346 506.834 249.373 507.984 249.403V276.943C450.526 278.219 393.06 279 335.585 279.283C283.419 279.538 231.251 279.38 179.081 278.809C178.992 278.901 178.885 278.973 178.767 279.023C178.649 279.072 178.522 279.097 178.394 279.096H145.979C145.776 279.105 145.576 279.048 145.408 278.934C145.24 278.82 145.114 278.655 145.047 278.464C145.047 278.435 145.018 278.406 145.007 278.378C118.816 277.994 92.6243 277.515 66.4331 276.94V249.423L75.7998 249.386C85.3161 249.348 94.8323 249.313 104.349 249.283L147.212 249.142C150.192 249.13 153.175 249.122 156.159 249.116L156.343 248.386L156.682 247.029L113.695 247.167L81.2077 247.284C76.2886 247.302 71.3579 247.23 66.4388 247.336V2.08437H507.958V109.227ZM376.763 229.626C384.037 229.144 391.331 229.063 398.613 229.382C398.579 231.061 398.55 232.737 398.496 234.413C398.36 238.501 398.151 242.584 397.889 246.663H376.919C376.968 244.355 377.025 238.28 376.763 229.626ZM376.697 227.548C376.366 217.902 375.75 208.269 374.852 198.66L397.886 197.719C398.549 207.563 398.811 217.425 398.671 227.303C391.35 226.981 384.009 227.063 376.697 227.548ZM253.118 159.81C253.184 160.076 253.145 160.356 253.01 160.594C252.874 160.832 252.653 161.009 252.391 161.089C252.125 161.162 251.841 161.126 251.601 160.991C251.361 160.855 251.184 160.63 251.109 160.365L250.899 159.134C250.393 159.211 249.885 159.27 249.375 159.312C249.108 159.298 248.857 159.182 248.673 158.989C248.489 158.795 248.386 158.537 248.386 158.27C248.386 158.003 248.489 157.746 248.673 157.552C248.857 157.358 249.108 157.242 249.375 157.228C249.579 157.228 249.78 157.193 249.982 157.173L250.238 157.145L250.355 157.13L250.548 157.096L250.261 155.397C250.194 155.13 250.233 154.849 250.368 154.61C250.503 154.371 250.725 154.194 250.988 154.114C251.254 154.043 251.538 154.079 251.777 154.215C252.017 154.351 252.193 154.576 252.267 154.842L252.584 156.685C252.954 156.587 253.32 156.48 253.685 156.363C253.817 156.326 253.955 156.316 254.091 156.334C254.227 156.351 254.358 156.394 254.477 156.462C254.596 156.53 254.701 156.621 254.785 156.729C254.869 156.837 254.931 156.961 254.967 157.093C255.003 157.225 255.013 157.363 254.996 157.499C254.979 157.635 254.935 157.766 254.867 157.885C254.8 158.004 254.709 158.109 254.601 158.193C254.493 158.277 254.369 158.339 254.237 158.375C253.808 158.511 253.374 158.633 252.937 158.74L253.118 159.81ZM251.034 215.148C251.075 215.254 251.102 215.365 251.114 215.478L251.163 215.907C251.164 216.158 251.072 216.401 250.906 216.59C250.74 216.778 250.51 216.899 250.261 216.93C250.011 216.966 249.757 216.91 249.545 216.773C249.333 216.635 249.179 216.426 249.111 216.183C248.993 215.623 248.891 215.06 248.803 214.495C248.201 214.52 247.599 214.528 246.997 214.518C246.721 214.518 246.457 214.408 246.262 214.213C246.066 214.018 245.957 213.753 245.957 213.477C245.957 213.201 246.066 212.937 246.262 212.741C246.457 212.546 246.721 212.437 246.997 212.437H248.547C248.471 211.644 248.425 210.849 248.409 210.053C248.409 209.777 248.519 209.512 248.714 209.317C248.909 209.122 249.174 209.012 249.45 209.012C249.726 209.012 249.991 209.122 250.186 209.317C250.381 209.512 250.491 209.777 250.491 210.053C250.491 210.844 250.551 211.586 250.617 212.313H250.646C250.838 212.296 251.034 212.276 251.221 212.253L251.56 212.212H251.669C251.936 212.147 252.216 212.187 252.455 212.322C252.693 212.457 252.871 212.678 252.952 212.94C253.024 213.211 252.986 213.499 252.845 213.742C252.709 213.976 252.486 214.147 252.224 214.219C251.773 214.282 251.321 214.334 250.873 214.38C250.928 214.607 250.982 214.883 251.034 215.148ZM253.892 136.853C252.134 138.946 250.255 140.936 248.265 142.81C248.108 142.969 247.901 143.07 247.679 143.096C247.457 143.121 247.233 143.07 247.043 142.951C246.878 142.871 246.735 142.75 246.629 142.6L238.418 130.942C238.268 130.77 238.191 130.546 238.206 130.318V130.166C238.306 129.041 238.474 127.923 238.709 126.819C238.856 126.086 239.064 125.365 239.33 124.666C239.563 123.948 239.956 123.292 240.48 122.748C240.746 122.482 241.08 122.292 241.445 122.199C241.81 122.106 242.194 122.113 242.556 122.219C242.881 122.347 243.176 122.541 243.424 122.788C243.671 123.036 243.865 123.331 243.993 123.657C244.103 123.906 244.199 124.161 244.281 124.421C244.646 124.134 245.011 123.846 245.385 123.59C246.44 122.617 247.783 122.012 249.211 121.865C251.281 122.001 251.109 124.372 250.505 125.781C251.06 125.574 251.67 125.569 252.229 125.766C252.787 125.963 253.259 126.35 253.561 126.859C253.805 127.352 253.92 127.899 253.894 128.449C253.868 128.998 253.702 129.532 253.412 129.999C253.685 129.944 253.963 129.913 254.242 129.907C254.612 129.86 254.987 129.91 255.332 130.05C255.677 130.191 255.98 130.419 256.211 130.71C256.442 131.002 256.594 131.349 256.652 131.717C256.71 132.085 256.673 132.462 256.542 132.811C255.903 134.301 255.006 135.675 253.892 136.853ZM235.716 73.8472L223.066 60.6222C226.428 57.7382 229.982 55.0861 233.703 52.6844C242.931 46.7726 253.143 42.5631 263.856 40.2557C264.876 45.379 265.898 50.5013 266.921 55.6226C255.092 58.8347 244.325 65.1228 235.716 73.8472ZM265.903 39.8302C269.91 39.0546 273.963 38.538 278.036 38.2835C287.58 37.6842 297.161 38.4284 306.498 40.4944L304.342 55.9762C297.286 53.8646 289.924 52.9616 282.567 53.3054C277.98 53.4743 273.42 54.0798 268.948 55.1137L265.903 39.8302ZM308.52 40.963C314.072 42.3139 319.49 44.1643 324.709 46.4916C331.62 49.587 338.126 53.5156 344.083 58.19L332.997 74.3475C325.702 66.3394 316.547 60.2519 306.34 56.6231L308.52 40.963ZM345.708 59.4952C351.417 64.1751 356.528 69.5411 360.925 75.4716C364.693 80.6969 368.012 86.2318 370.847 92.0172C370.792 92.038 370.739 92.063 370.689 92.092C364.525 95.8783 358.747 100.26 353.439 105.173C353.291 105.311 353.191 105.491 353.151 105.688C348.449 94.8813 342.142 84.8466 334.443 75.923L345.708 59.4952ZM354.908 106.645C360.084 101.854 365.719 97.5826 371.729 93.8917L371.752 93.8716C372.425 95.2439 373.086 96.6182 373.736 97.9944C377.566 106.195 380.912 114.613 383.758 123.205C377.646 128.423 371.129 133.148 364.269 137.336C361.501 126.878 357.936 116.648 353.605 106.734C353.798 106.88 354.037 106.952 354.278 106.936C354.52 106.92 354.736 106.815 354.908 106.645ZM384.451 125.333C387.223 133.932 389.567 142.664 391.475 151.495C384.559 155.681 377.36 159.38 369.93 162.564C368.519 154.791 366.816 147.074 364.826 139.429C371.731 135.249 378.281 130.536 384.451 125.333ZM391.926 153.657C393.651 161.924 395.029 170.25 396.06 178.635C396.762 184.29 397.302 189.963 397.719 195.644L374.633 196.587C373.598 185.892 372.152 175.241 370.298 164.657C377.756 161.49 384.971 157.815 391.926 153.657ZM239.083 161.888C238.579 160.646 240.595 160.109 241.095 161.336C242.585 165.023 243.716 168.844 244.473 172.747C247.166 186.559 245.309 200.871 239.18 213.538C238.605 214.745 236.797 213.687 237.383 212.488C239.063 209.043 240.411 205.445 241.408 201.744C244.976 188.558 244.16 174.57 239.083 161.888ZM223.598 217.842C224.676 218.621 223.635 220.429 222.546 219.638C218.992 217.05 216.181 213.572 214.395 209.555C212.608 205.537 211.91 201.121 212.368 196.748C212.52 195.431 214.605 195.419 214.45 196.748C213.993 200.757 214.598 204.816 216.204 208.518C217.809 212.22 220.359 215.435 223.598 217.842ZM223.719 208.581C222.552 207.217 221.951 205.458 222.037 203.665C222.043 203.391 222.154 203.129 222.348 202.936C222.542 202.742 222.803 202.63 223.077 202.624C223.353 202.625 223.618 202.735 223.813 202.93C224.008 203.125 224.117 203.389 224.118 203.665V204.484C224.137 204.568 224.146 204.654 224.147 204.74V204.815C224.161 204.907 224.181 204.996 224.202 205.085C224.239 205.251 224.285 205.415 224.34 205.577C224.363 205.654 224.388 205.729 224.417 205.804L224.466 205.93C224.506 206.037 224.498 206.017 224.437 205.873C224.437 205.905 224.535 206.086 224.552 206.12L224.679 206.362C224.766 206.523 224.862 206.679 224.966 206.83C224.992 206.871 225.078 207.04 225.124 207.052L225.087 207.003L225.173 207.109C225.363 207.307 225.469 207.571 225.469 207.845C225.469 208.12 225.363 208.383 225.173 208.581C224.978 208.77 224.717 208.875 224.446 208.875C224.175 208.875 223.914 208.77 223.719 208.581ZM209.427 217.382C209.482 217.581 209.477 217.793 209.411 217.99C209.346 218.186 209.223 218.359 209.058 218.485C208.894 218.611 208.696 218.686 208.489 218.699C208.282 218.711 208.076 218.662 207.897 218.557C207.67 218.413 207.5 218.193 207.417 217.936C207.294 217.614 207.184 217.287 207.087 216.956L205.511 217.212C205.245 217.278 204.965 217.239 204.727 217.103C204.489 216.968 204.311 216.747 204.232 216.485C204.159 216.218 204.194 215.934 204.331 215.694C204.467 215.454 204.693 215.278 204.959 215.205L206.647 214.918C206.572 214.412 206.523 213.902 206.5 213.391C206.514 213.124 206.63 212.873 206.824 212.689C207.018 212.505 207.275 212.402 207.542 212.402C207.81 212.402 208.067 212.505 208.261 212.689C208.455 212.873 208.571 213.124 208.585 213.391C208.585 213.762 208.628 214.13 208.668 214.501V214.587L209.2 214.501C209.466 214.435 209.747 214.474 209.985 214.61C210.223 214.745 210.4 214.966 210.479 215.228C210.552 215.494 210.517 215.779 210.38 216.019C210.244 216.258 210.018 216.434 209.752 216.508L209.148 216.605C209.246 216.876 209.329 217.131 209.427 217.382Z" fill="#7D49F8"/>
<path d="M170.742 175.024C169.46 184.199 168.523 193.424 167.867 202.653L170.984 190.291C171.067 189.448 171.156 188.603 171.248 187.761H171.616L172.137 185.702L171.472 185.671C172.274 178.5 173.287 171.355 174.511 164.235C173.833 164.127 173.15 164.015 172.461 163.898C171.835 167.607 171.262 171.316 170.742 175.024ZM287.105 274.235C289.583 274.235 291.959 273.251 293.711 271.499C295.463 269.748 296.448 267.372 296.449 264.894C296.449 255.829 283.942 252.095 279.199 259.889C278.397 261.319 277.974 262.93 277.968 264.569C277.963 266.209 278.375 267.822 279.166 269.258C279.957 270.694 281.102 271.905 282.491 272.775C283.88 273.646 285.468 274.148 287.105 274.235Z" fill="#7D4AB4"/>
<path d="M191.725 101.321V101.39L191.754 101.464C191.869 101.793 192.027 102.105 192.223 102.393C192.257 102.448 192.297 102.497 192.335 102.551C192.557 102.883 192.803 103.198 193.071 103.494C193.961 104.545 195.056 105.402 196.29 106.013C197.523 106.624 198.869 106.976 200.244 107.048C201.336 107.062 202.935 107.048 203.493 105.958C203.864 105.245 204.211 104.521 204.571 103.796L204.6 103.736L205.396 102.137L205.528 101.87L206.143 100.634L206.161 100.593C204.469 100.2 202.915 99.3575 201.661 98.1554C199.839 96.3183 198.543 94.0257 197.909 91.517C197.801 91.1204 197.706 90.7206 197.622 90.3181C197.245 90.3382 196.866 90.3382 196.489 90.3181C194.827 93.5322 193.35 96.8391 192.067 100.222L192.021 100.372C191.921 100.659 191.832 100.947 191.734 101.249C191.705 101.338 191.697 101.378 191.697 101.378L191.725 101.321Z" fill="#FFCEB6"/>
<path d="M195.348 87.9804L195.509 88.0235C195.804 88.0955 196.103 88.1474 196.406 88.1788C196.766 88.2177 197.129 88.234 197.492 88.2276C197.829 88.2234 198.165 88.2004 198.499 88.1586C198.642 88.142 198.786 88.1642 198.918 88.2229C199.05 88.2816 199.163 88.3746 199.246 88.4921C199.334 88.6051 199.404 88.7312 199.453 88.8659C199.495 88.9733 199.524 89.0852 199.539 89.1994V89.1017C199.519 88.9608 199.522 88.9924 199.539 89.1017L199.559 89.2339C199.6 89.4467 199.637 89.6623 199.683 89.875C199.844 90.6147 200.051 91.3436 200.304 92.0571C200.765 93.6566 201.631 95.1098 202.819 96.2759C204.007 97.442 205.476 98.2815 207.083 98.7128H207.109C207.149 98.7128 207.193 98.7128 207.233 98.73C207.535 98.7844 207.84 98.818 208.147 98.8307C208.494 98.8492 208.842 98.8434 209.188 98.8134H209.435C210.7 98.658 211.913 98.2196 212.986 97.5308C214.058 96.8419 214.961 95.9203 215.628 94.8344C217.038 91.9842 217.424 88.7355 216.72 85.6344C216.091 81.3961 214.98 77.2436 213.408 73.2575C213.301 72.9854 213.189 72.7094 213.072 72.4295C212.882 71.9807 212.667 71.543 212.428 71.1185C212.18 70.657 211.878 70.2265 211.528 69.8363C211.398 69.6966 211.255 69.5686 211.103 69.4539C210.466 68.9918 209.698 68.7459 208.912 68.7524C207.378 68.6276 205.839 68.9103 204.45 69.5718C199.948 71.8718 198.815 77.9467 198.315 82.4748C198.24 83.159 197.452 83.9123 196.748 83.3747C196.441 83.1171 196.077 82.938 195.685 82.8528C195.294 82.7677 194.888 82.779 194.502 82.8859C194.075 83.0508 193.704 83.3341 193.433 83.7024C193.063 84.1743 192.874 84.7624 192.898 85.3613C192.957 86.0082 193.229 86.6171 193.673 87.0915C194.117 87.5659 194.706 87.8787 195.348 87.9804ZM151.038 161.557C150.917 162.322 150.805 163.09 150.707 163.834C150.457 165.672 150.282 167.52 150.184 169.372C150 170.864 150.098 172.377 150.472 173.834C150.452 173.776 150.454 173.834 150.521 173.931C150.555 173.923 150.589 173.91 150.621 173.894C150.794 173.752 150.952 173.592 151.093 173.417C151.343 173.073 151.556 172.704 151.728 172.316C152.255 171.168 152.645 169.961 152.89 168.722C152.962 168.484 153.118 168.279 153.328 168.146C153.538 168.012 153.789 167.957 154.036 167.992C154.282 168.027 154.509 168.148 154.674 168.335C154.839 168.521 154.932 168.76 154.937 169.009C154.875 169.894 154.904 170.782 155.023 171.66C155.084 172.273 155.251 172.87 155.517 173.425C155.603 173.612 155.735 173.774 155.9 173.897C155.94 173.928 155.986 173.951 156.036 173.964C156.085 173.976 156.137 173.979 156.187 173.972C156.336 173.937 156.469 173.854 156.567 173.736C156.762 173.54 156.928 173.316 157.058 173.072C157.394 172.479 157.662 171.85 157.858 171.197C158.118 170.39 158.322 169.566 158.47 168.731C158.674 167.535 160.497 167.868 160.514 169.018C160.468 170.469 160.737 171.913 161.302 173.25C161.413 173.531 161.604 173.774 161.851 173.949C161.811 173.926 161.851 173.949 161.894 173.977L161.923 173.94C162.104 173.753 161.977 173.9 162.046 173.799C162.21 173.56 162.355 173.31 162.481 173.049C163.164 171.505 163.679 169.893 164.019 168.239C164.553 166.045 164.993 163.82 165.356 161.589H151.038V161.557ZM161.834 174.012L161.848 173.986H161.808C161.831 174 161.834 174.006 161.834 174.012ZM161.983 173.949L161.923 173.94C161.946 173.966 161.989 173.98 161.983 173.949ZM253.658 132.071C252.534 132.399 251.474 132.917 250.525 133.604C249.524 134.285 248.449 132.779 249.262 131.968C249.747 131.486 250.197 130.97 250.608 130.424C250.987 129.921 252.028 128.616 251.804 127.992C251.58 127.368 250.182 128.061 249.743 128.279C249.266 128.531 248.805 128.813 248.363 129.122L247.928 129.438C247.874 129.478 247.877 129.475 247.897 129.458C247.698 129.649 247.432 129.753 247.157 129.747C246.881 129.741 246.62 129.626 246.429 129.428C246.238 129.229 246.135 128.963 246.14 128.688C246.146 128.413 246.261 128.151 246.459 127.96C247.398 127.014 248.164 125.91 248.722 124.7C248.823 124.453 248.825 124.159 248.909 123.938C248.744 123.978 248.585 124.037 248.434 124.113C247.195 124.764 246.037 125.559 244.984 126.482L244.766 126.669C244.93 128.028 245.003 129.395 244.984 130.763C244.984 131.039 244.875 131.304 244.68 131.499C244.484 131.694 244.22 131.804 243.944 131.804C243.668 131.804 243.403 131.694 243.208 131.499C243.013 131.304 242.903 131.039 242.903 130.763V130.66C242.903 129.889 242.886 129.113 242.834 128.343C242.834 128.23 242.834 128.118 242.814 128.006C242.789 127.686 242.758 127.365 242.722 127.046V126.963L242.696 126.764L242.676 126.623C242.653 126.47 242.627 126.316 242.598 126.163C242.578 126.057 242.549 125.953 242.526 125.85C242.48 125.631 242.437 125.41 242.377 125.194C242.332 125.044 242.285 124.894 242.233 124.746L242.201 124.648L242.173 124.596C242.116 124.488 242.057 124.382 241.994 124.277C241.974 124.263 241.957 124.245 241.946 124.223L241.839 124.332C241.796 124.381 241.718 124.533 241.785 124.392C241.851 124.251 241.764 124.427 241.739 124.47C241.656 124.597 241.58 124.728 241.511 124.864L241.411 125.068L241.388 125.123C241.276 125.427 241.161 125.726 241.069 126.037C240.93 126.51 240.813 126.99 240.718 127.474C240.675 127.684 240.629 127.897 240.589 128.11C240.533 128.417 240.483 128.726 240.439 129.035L240.419 129.173V129.26L240.379 129.596L240.333 130.019C240.333 130.114 240.313 130.208 240.304 130.306C240.304 130.341 240.304 130.372 240.287 130.407L240.629 130.441L247.69 140.449C248.02 140.124 248.354 139.802 248.679 139.469C250.909 137.449 252.844 135.126 254.429 132.569C254.523 132.41 254.594 132.238 254.642 132.06L254.659 132.002C254.631 131.992 254.602 131.984 254.573 131.979C254.265 131.948 253.954 131.98 253.658 132.071Z" fill="#FFCEB6"/>
<path d="M238.509 179.394C238.168 176.089 237.502 172.827 236.52 169.653C236.123 168.38 234.111 168.923 234.507 170.208C235.112 172.139 235.592 174.107 235.945 176.099C236.411 178.748 236.657 181.431 236.681 184.12C236.747 190.455 235.556 196.741 233.176 202.612C232.205 205.326 230.567 207.751 228.412 209.665C227.374 210.51 228.855 211.965 229.884 211.137C231.904 209.381 233.491 207.181 234.522 204.711C235.699 202.101 236.634 199.388 237.313 196.606C238.698 190.98 239.102 185.157 238.509 179.394ZM225.077 207.002L225.115 207.051C225.069 207.051 224.982 206.87 224.957 206.83C224.853 206.679 224.757 206.522 224.669 206.361C224.625 206.282 224.583 206.201 224.543 206.12C224.525 206.085 224.413 205.904 224.428 205.872C224.488 206.016 224.497 206.036 224.456 205.93L224.407 205.804C224.379 205.729 224.353 205.653 224.33 205.576C224.275 205.415 224.229 205.251 224.192 205.085C224.171 204.995 224.152 204.905 224.137 204.815V204.74C224.137 204.654 224.127 204.568 224.108 204.484V203.665C224.108 203.389 223.998 203.124 223.803 202.929C223.608 202.734 223.343 202.625 223.068 202.624C222.793 202.63 222.532 202.741 222.338 202.935C222.144 203.129 222.033 203.39 222.027 203.665C221.941 205.458 222.542 207.216 223.709 208.581C223.905 208.775 224.169 208.883 224.445 208.883C224.72 208.883 224.985 208.775 225.181 208.581C225.371 208.383 225.477 208.119 225.477 207.845C225.477 207.57 225.371 207.307 225.181 207.109L225.077 207.002Z" fill="#B26EE6"/>
<path d="M244.446 172.748C243.686 168.849 242.553 165.031 241.062 161.349C240.568 160.121 238.552 160.659 239.05 161.901C244.126 174.578 244.945 188.562 241.382 201.745C240.384 205.446 239.036 209.044 237.356 212.489C236.781 213.688 238.567 214.746 239.153 213.539C245.282 200.872 247.139 186.559 244.446 172.748ZM223.571 217.842C220.332 215.436 217.782 212.22 216.177 208.519C214.571 204.817 213.966 200.758 214.423 196.749C214.578 195.42 212.493 195.432 212.341 196.749C211.883 201.121 212.582 205.538 214.368 209.555C216.154 213.573 218.965 217.05 222.519 219.639C223.608 220.427 224.649 218.622 223.571 217.842Z" fill="#B26EE6"/>
<path d="M254.948 157.082C254.871 156.818 254.695 156.595 254.456 156.459C254.217 156.323 253.934 156.286 253.668 156.355C253.304 156.472 252.937 156.58 252.567 156.677L252.251 154.834C252.176 154.569 252 154.344 251.761 154.208C251.521 154.071 251.238 154.035 250.971 154.107C250.709 154.186 250.487 154.364 250.352 154.603C250.216 154.841 250.178 155.123 250.244 155.389L250.532 157.088L250.339 157.123L250.221 157.137L249.965 157.166C249.764 157.186 249.563 157.206 249.359 157.22C249.092 157.234 248.84 157.35 248.656 157.544C248.472 157.738 248.37 157.995 248.37 158.263C248.37 158.53 248.472 158.787 248.656 158.981C248.84 159.175 249.092 159.291 249.359 159.305C249.87 159.264 250.376 159.201 250.882 159.126L251.092 160.357C251.167 160.622 251.344 160.847 251.584 160.983C251.824 161.119 252.108 161.154 252.374 161.081C252.636 161.002 252.858 160.825 252.993 160.587C253.129 160.349 253.167 160.068 253.102 159.802L252.918 158.73C253.355 158.62 253.78 158.503 254.217 158.365C254.482 158.287 254.706 158.111 254.842 157.871C254.978 157.632 255.016 157.349 254.948 157.082ZM209.201 214.513L208.669 214.6V214.513C208.627 214.145 208.599 213.774 208.585 213.404C208.571 213.137 208.455 212.885 208.261 212.701C208.068 212.517 207.81 212.415 207.543 212.415C207.276 212.415 207.019 212.517 206.825 212.701C206.631 212.885 206.515 213.137 206.501 213.404C206.524 213.915 206.573 214.424 206.648 214.93L204.96 215.218C204.694 215.291 204.468 215.467 204.331 215.707C204.195 215.947 204.159 216.231 204.233 216.497C204.312 216.759 204.489 216.981 204.727 217.116C204.965 217.251 205.246 217.29 205.512 217.225L207.087 216.969C207.185 217.299 207.294 217.627 207.418 217.949C207.5 218.206 207.67 218.426 207.898 218.57C208.077 218.675 208.283 218.724 208.49 218.711C208.697 218.698 208.895 218.624 209.059 218.497C209.223 218.371 209.346 218.199 209.412 218.002C209.478 217.806 209.483 217.594 209.428 217.394C209.332 217.142 209.244 216.887 209.163 216.629L209.767 216.532C210.033 216.458 210.259 216.283 210.396 216.043C210.532 215.803 210.567 215.518 210.494 215.252C210.417 214.985 210.239 214.758 209.997 214.62C209.756 214.483 209.47 214.444 209.201 214.513ZM251.667 212.179H251.558L251.219 212.219C251.027 212.242 250.836 212.262 250.644 212.28H250.615C250.549 211.552 250.5 210.81 250.488 210.02C250.488 209.744 250.379 209.479 250.184 209.284C249.988 209.089 249.724 208.979 249.448 208.979C249.172 208.979 248.907 209.089 248.712 209.284C248.517 209.479 248.407 209.744 248.407 210.02C248.407 210.816 248.473 211.61 248.545 212.403C248.027 212.403 247.513 212.423 246.995 212.403C246.719 212.403 246.455 212.513 246.259 212.708C246.064 212.903 245.955 213.168 245.955 213.444C245.955 213.72 246.064 213.985 246.259 214.18C246.455 214.375 246.719 214.485 246.995 214.485C247.596 214.485 248.2 214.485 248.801 214.462C248.89 215.037 248.991 215.592 249.108 216.149C249.177 216.392 249.331 216.602 249.543 216.739C249.754 216.877 250.009 216.933 250.258 216.897C250.508 216.866 250.738 216.745 250.904 216.556C251.07 216.368 251.162 216.125 251.161 215.873L251.112 215.445C251.1 215.332 251.072 215.221 251.032 215.114C250.98 214.85 250.925 214.582 250.882 214.321C251.331 214.275 251.782 214.223 252.234 214.16C252.495 214.088 252.718 213.917 252.855 213.683C252.995 213.44 253.033 213.151 252.961 212.88C252.875 212.621 252.693 212.404 252.453 212.274C252.213 212.143 251.932 212.109 251.667 212.179Z" fill="#FFD35C"/>
<path d="M211.058 82.7251C211.304 82.7251 211.545 82.6521 211.75 82.5153C211.954 82.3785 212.114 82.1841 212.208 81.9566C212.302 81.7292 212.327 81.4789 212.279 81.2374C212.231 80.9959 212.112 80.7741 211.938 80.6C211.764 80.4259 211.542 80.3073 211.301 80.2593C211.059 80.2112 210.809 80.2359 210.582 80.3301C210.354 80.4243 210.16 80.5839 210.023 80.7886C209.886 80.9933 209.813 81.234 209.813 81.4802C209.813 81.8104 209.944 82.127 210.178 82.3605C210.411 82.594 210.728 82.7251 211.058 82.7251ZM207.979 78.5506C208.121 78.3792 208.278 78.2205 208.448 78.0762C208.601 77.965 208.765 77.8688 208.936 77.7887C209.021 77.7568 209.109 77.7318 209.198 77.714H209.287C209.34 77.7004 209.391 77.6811 209.439 77.6565C209.568 77.6168 209.684 77.5422 209.773 77.4409C209.87 77.3442 209.946 77.2295 209.999 77.1032C210.051 76.9769 210.078 76.8416 210.078 76.7049C210.078 76.5682 210.051 76.4328 209.999 76.3065C209.946 76.1802 209.87 76.0655 209.773 75.9689C209.677 75.8712 209.562 75.7939 209.436 75.7415C209.31 75.6891 209.174 75.6628 209.037 75.6641C208.773 75.6893 208.514 75.7502 208.266 75.8452C208.007 75.9446 207.758 76.0678 207.522 76.2132C207.244 76.3944 206.984 76.6034 206.748 76.8371C206.437 77.156 206.167 77.5123 205.943 77.898C205.807 78.142 205.77 78.4294 205.84 78.7001C205.894 78.8978 206.006 79.075 206.16 79.2095C206.315 79.3441 206.506 79.4299 206.709 79.4563C206.913 79.4827 207.119 79.4485 207.303 79.358C207.487 79.2674 207.64 79.1246 207.743 78.9474C207.821 78.8007 207.89 78.6742 207.979 78.5506Z" fill="black"/>
<path d="M156.315 248.39L156.131 249.12L151.804 266.267C151.804 266.267 163.016 269.929 170.115 266.842L177.483 249.06L177.771 248.393L178.346 246.975L185.493 229.725L186.356 227.609L189.774 219.364L203.919 185.229C203.919 185.229 215.776 187.747 231.019 206.038C234.685 199.313 236.622 191.782 236.657 184.122C236.633 181.432 236.387 178.75 235.921 176.101L219.369 164.342C219.434 164.237 219.478 164.121 219.499 164C219.709 162.85 219.887 161.7 220.048 160.55C220.749 155.58 221.037 150.56 220.91 145.542C220.825 140.05 220.231 134.577 219.134 129.195C218.43 126.116 217.566 123.076 216.546 120.087C216.236 119.142 215.916 118.201 215.589 117.264C214.65 114.569 213.595 111.917 212.426 109.314L212.326 109.096C212.11 108.631 211.889 108.169 211.661 107.71L211.532 107.454C211.273 106.943 211.003 106.434 210.718 105.936C210.47 105.502 210.208 105.075 209.934 104.657C209.786 104.436 209.634 104.215 209.476 103.993C208.994 103.275 208.396 102.642 207.705 102.121L208.332 100.862C209.974 100.885 211.598 100.521 213.074 99.8011C214.55 99.081 215.835 98.0243 216.828 96.7161C217.894 94.998 218.608 93.0852 218.929 91.0889C219.249 89.0925 219.171 87.0524 218.697 85.0868C218.067 80.8439 216.953 76.6872 215.376 72.6984C215.149 72.1234 214.904 71.5484 214.631 70.9734C216.203 69.6811 217.567 68.156 218.676 66.451C218.995 65.7749 219.096 65.0162 218.964 64.2804C218.88 63.9301 218.726 63.6005 218.511 63.3115C218.296 63.0224 218.025 62.7799 217.713 62.5985C217.308 62.3462 216.864 62.1617 216.399 62.0523C216.72 61.3143 216.957 60.5428 217.107 59.7523C217.206 59.1499 217.16 58.5325 216.972 57.9518C216.783 57.3712 216.458 56.8442 216.024 56.4152C215.589 55.9862 215.058 55.6677 214.475 55.4865C213.892 55.3052 213.274 55.2665 212.673 55.3736C210.713 55.638 208.857 56.4171 207.296 57.6316C205.734 58.8462 204.523 60.4528 203.784 62.288C203.209 60.2151 201.792 59.965 201.792 59.965C198.054 58.3866 188.426 66.6062 188.854 73.8283C189.122 76.8372 190.25 79.7056 192.103 82.091C191.298 82.8817 190.826 83.9505 190.783 85.0781C190.775 85.8218 190.939 86.5572 191.262 87.2267C191.586 87.8962 192.061 88.4814 192.649 88.9364C193.173 89.3476 193.762 89.6691 194.391 89.888C192.902 92.9384 191.447 96.0233 190.24 99.1858C190.064 99.6176 189.909 100.058 189.777 100.505C189.694 100.79 189.649 101.085 189.645 101.382C189.665 101.863 189.793 102.332 190.018 102.757C190.227 103.159 190.468 103.544 190.74 103.907C190.941 104.194 191.16 104.456 191.384 104.72C193.098 106.76 195.412 108.207 197.997 108.854C199.774 109.284 201.635 109.224 203.381 108.682C203.871 108.495 204.316 108.206 204.687 107.836C205.058 107.465 205.347 107.021 205.535 106.531L206.438 104.717L206.765 104.036C207.262 104.501 207.699 105.025 208.068 105.597L208.105 105.649L208.145 105.712C208.929 106.928 209.628 108.197 210.235 109.51C210.578 110.22 210.897 110.947 211.21 111.663C212.343 114.28 213.323 116.965 214.232 119.662C215.277 122.699 216.185 125.782 216.951 128.902C217.987 133.604 218.591 138.39 218.757 143.202C219.024 148.333 218.853 153.478 218.245 158.58C218.054 160.208 217.809 161.829 217.512 163.445C217.499 163.54 217.499 163.637 217.512 163.732C217.516 163.792 217.525 163.852 217.538 163.911C210.339 165.187 203.042 165.823 195.731 165.811C189.617 165.838 183.508 165.454 177.446 164.661L172.136 185.709L171.616 187.767L170.98 190.286L167.864 202.648L156.654 247.033L156.315 248.39ZM206.133 100.635L205.518 101.871L205.385 102.138L204.589 103.737L204.56 103.797C204.201 104.516 203.853 105.235 203.482 105.959C202.924 107.04 201.326 107.063 200.233 107.049C198.859 106.977 197.513 106.625 196.279 106.014C195.046 105.403 193.95 104.546 193.06 103.495C192.792 103.199 192.546 102.884 192.324 102.552C192.287 102.498 192.247 102.449 192.212 102.394C192.016 102.106 191.859 101.794 191.743 101.466L191.715 101.391C191.715 101.391 191.715 101.331 191.752 101.241C191.838 100.954 191.927 100.666 192.04 100.365L192.086 100.215C193.369 96.8316 194.845 93.5247 196.507 90.3106C196.885 90.3308 197.263 90.3308 197.64 90.3106C197.718 90.7103 197.813 91.1099 197.928 91.5095C198.561 94.0183 199.857 96.3109 201.679 98.1479C202.933 99.35 204.487 100.192 206.179 100.586L206.133 100.635ZM207.087 98.7171H207.053C205.444 98.2871 203.973 97.4483 202.784 96.2821C201.594 95.1159 200.727 93.662 200.265 92.0615C200.012 91.3479 199.805 90.6191 199.644 89.8794C199.598 89.6666 199.561 89.451 199.52 89.2383L199.5 89.106V89.2038C199.485 89.0896 199.456 88.9776 199.414 88.8703C199.365 88.7356 199.295 88.6094 199.207 88.4965C199.124 88.3789 199.01 88.2859 198.879 88.2272C198.747 88.1686 198.603 88.1464 198.459 88.163C198.126 88.2048 197.79 88.2278 197.453 88.232C197.09 88.2384 196.727 88.222 196.366 88.1831C196.064 88.1517 195.765 88.0998 195.469 88.0279L195.308 87.9848C194.665 87.8849 194.074 87.5728 193.629 87.0982C193.183 86.6236 192.909 86.0138 192.85 85.3656C192.826 84.7667 193.016 84.1787 193.385 83.7068C193.657 83.3384 194.028 83.0552 194.455 82.8903C194.84 82.7834 195.246 82.7721 195.638 82.8572C196.029 82.9424 196.393 83.1214 196.7 83.379C197.401 83.9109 198.192 83.1634 198.267 82.4791C198.767 77.951 199.9 71.8876 204.402 69.5761C205.791 68.9146 207.331 68.632 208.864 68.7568C209.651 68.7503 210.418 68.9961 211.055 69.4583C211.208 69.573 211.35 69.7009 211.48 69.8406C211.83 70.2309 212.132 70.6613 212.38 71.1229C212.62 71.5473 212.835 71.985 213.024 72.4339C213.143 72.7137 213.255 72.9897 213.361 73.2619C214.938 77.2463 216.055 81.3979 216.69 85.6359C216.79 86.3374 216.874 87.0561 216.926 87.7806C216.854 87.8266 216.785 87.8755 216.713 87.9186C216.641 87.9618 216.497 88.0394 216.385 88.0969L216.198 88.1889L216.049 88.2579L215.914 88.3125L215.626 88.4131C215.454 88.4706 215.278 88.5224 215.1 88.5655C214.922 88.6086 214.712 88.6575 214.525 88.692L214.332 88.7179C214.24 88.7179 214.145 88.738 214.045 88.7438C213.519 88.786 212.99 88.7734 212.466 88.7064C211.251 88.5078 210.082 88.0889 209.016 87.4701C208.401 87.128 207.34 87.542 207.45 88.3671C207.594 89.9313 208.121 91.4359 208.985 92.7477C209.849 94.0596 211.023 95.1382 212.403 95.8881C212.643 96.0198 212.925 96.0544 213.189 95.9849C213.454 95.9154 213.682 95.747 213.826 95.5144C213.967 95.2741 214.006 94.9879 213.936 94.7184C213.866 94.449 213.692 94.2183 213.453 94.0769C211.942 93.3569 210.77 92.0789 210.184 90.5119L210.166 90.4688L210.146 90.417L210.06 90.1956C211.82 90.8588 213.735 90.9947 215.571 90.5866C216.045 90.4694 216.507 90.3127 216.954 90.118C216.898 91.7758 216.434 93.3942 215.603 94.8301C214.935 95.9112 214.032 96.8283 212.962 97.5135C211.891 98.1988 210.681 98.6347 209.419 98.789H209.172C208.826 98.8191 208.478 98.8248 208.131 98.8063C207.824 98.7936 207.519 98.76 207.217 98.7057C207.176 98.7248 207.13 98.7289 207.087 98.7171Z" fill="black"/>
<path d="M145.05 278.462C145.117 278.653 145.244 278.818 145.411 278.932C145.579 279.046 145.779 279.103 145.982 279.094H178.372C178.5 279.095 178.627 279.07 178.745 279.021C178.863 278.971 178.97 278.899 179.059 278.807C179.199 278.685 179.302 278.527 179.359 278.35C179.416 278.173 179.424 277.984 179.382 277.804C179.339 277.623 179.249 277.457 179.119 277.324C178.99 277.191 178.827 277.095 178.648 277.047C178.82 277.079 178.688 277.067 178.59 276.99C178.434 276.855 178.285 276.712 178.145 276.561C177.857 276.274 177.57 275.946 177.282 275.641C176.437 274.826 175.514 274.096 174.525 273.462C172.138 271.79 169.524 270.468 166.762 269.535C164.203 268.549 161.446 268.18 158.717 268.457C155.988 268.735 153.362 269.652 151.053 271.133C148.598 272.771 146.561 274.96 145.105 277.527C145.03 277.654 144.984 277.795 144.971 277.941C144.958 278.088 144.978 278.235 145.03 278.373C145.022 278.404 145.036 278.433 145.05 278.462ZM199.54 89.103C199.52 88.9621 199.523 88.9937 199.54 89.103V89.103ZM150.588 176.011C151.086 175.938 151.561 175.75 151.974 175.462C152.388 175.174 152.729 174.794 152.971 174.352C153.109 174.148 153.238 173.936 153.359 173.717C153.56 174.265 153.867 174.768 154.262 175.198C154.704 175.671 155.309 175.958 155.955 176.002C156.601 176.046 157.239 175.842 157.741 175.433C158.361 174.911 158.853 174.253 159.178 173.51L159.195 173.565C159.34 174.077 159.595 174.551 159.942 174.953C160.29 175.356 160.722 175.677 161.208 175.893C161.571 176.029 161.966 176.058 162.345 175.976C162.724 175.895 163.072 175.706 163.347 175.433C164.42 174.11 165.15 172.541 165.472 170.868C166.078 168.795 166.53 166.673 166.932 164.543C167.168 163.295 167.389 162.042 167.576 160.785C167.597 160.629 167.592 160.471 167.562 160.317C167.547 160.217 167.519 160.121 167.478 160.029L167.45 159.972C167.4 159.868 167.329 159.776 167.242 159.701C167.155 159.626 167.053 159.569 166.944 159.535C166.908 159.528 166.871 159.524 166.834 159.523C166.786 159.51 166.737 159.501 166.688 159.497H150.159C149.932 159.498 149.711 159.573 149.529 159.711C149.348 159.849 149.217 160.043 149.156 160.262L149.113 160.55C148.566 163.635 148.223 166.754 148.086 169.885C147.848 171.616 148.066 173.38 148.719 175.002C148.901 175.332 149.174 175.602 149.505 175.781C149.836 175.96 150.212 176.04 150.588 176.011ZM161.924 173.947C161.955 173.947 161.981 173.927 161.984 173.947C161.987 173.967 161.947 173.961 161.924 173.947ZM150.185 169.347C150.271 167.496 150.473 165.647 150.708 163.81C150.806 163.065 150.918 162.298 151.039 161.533H165.348C164.986 163.764 164.546 165.989 164.011 168.183C163.672 169.836 163.156 171.449 162.473 172.993C162.347 173.253 162.202 173.504 162.039 173.743C161.97 173.844 162.096 173.697 161.915 173.884L161.886 173.921C161.84 173.898 161.803 173.869 161.843 173.892C161.596 173.718 161.405 173.475 161.294 173.194C160.729 171.856 160.461 170.413 160.506 168.962C160.489 167.835 158.666 167.487 158.462 168.674C158.315 169.51 158.11 170.334 157.85 171.141C157.654 171.794 157.386 172.422 157.051 173.016C156.921 173.26 156.755 173.484 156.559 173.68C156.462 173.798 156.328 173.88 156.18 173.915C156.129 173.923 156.078 173.92 156.028 173.907C155.979 173.894 155.933 173.872 155.892 173.841C155.727 173.718 155.596 173.556 155.51 173.369C155.244 172.814 155.076 172.217 155.015 171.604C154.896 170.726 154.867 169.837 154.929 168.953C154.924 168.704 154.831 168.465 154.666 168.278C154.501 168.092 154.275 167.97 154.028 167.936C153.782 167.901 153.531 167.955 153.32 168.089C153.11 168.223 152.955 168.427 152.882 168.666C152.638 169.91 152.247 171.121 151.718 172.274C151.545 172.662 151.332 173.031 151.082 173.375C150.942 173.55 150.784 173.71 150.611 173.852C150.579 173.868 150.545 173.881 150.51 173.89C150.444 173.783 150.441 173.734 150.461 173.792C150.096 172.349 150.003 170.85 150.185 169.373V169.347ZM238.344 130.842L238.416 130.943L246.633 142.592C246.739 142.743 246.881 142.863 247.047 142.943C247.236 143.063 247.46 143.114 247.683 143.088C247.905 143.062 248.112 142.962 248.269 142.802C250.259 140.928 252.137 138.939 253.895 136.845C255.02 135.664 255.927 134.293 256.572 132.794C256.702 132.445 256.74 132.069 256.682 131.701C256.623 131.333 256.471 130.986 256.24 130.694C256.009 130.402 255.706 130.175 255.361 130.034C255.017 129.893 254.641 129.844 254.272 129.891C253.993 129.897 253.715 129.928 253.441 129.983C253.731 129.515 253.897 128.982 253.923 128.432C253.949 127.883 253.835 127.336 253.59 126.843C253.288 126.334 252.816 125.947 252.258 125.75C251.699 125.553 251.089 125.558 250.534 125.765C251.138 124.356 251.31 121.984 249.24 121.849C247.812 121.995 246.469 122.601 245.414 123.574C245.04 123.844 244.675 124.12 244.31 124.405C244.229 124.145 244.133 123.89 244.022 123.64C243.894 123.315 243.7 123.019 243.453 122.772C243.206 122.525 242.91 122.331 242.585 122.203C242.223 122.096 241.84 122.089 241.474 122.183C241.109 122.276 240.776 122.465 240.509 122.732C239.986 123.276 239.593 123.932 239.359 124.649C239.093 125.349 238.886 126.069 238.738 126.803C238.503 127.907 238.335 129.025 238.235 130.149V130.302C238.225 130.486 238.275 130.668 238.376 130.822L238.344 130.842ZM240.273 130.319C240.273 130.224 240.294 130.129 240.302 130.031C240.302 129.891 240.331 129.744 240.348 129.609L240.388 129.272V129.186L240.434 129.048C240.478 128.738 240.529 128.43 240.584 128.122C240.624 127.91 240.67 127.697 240.713 127.487C240.811 127.004 240.928 126.524 241.064 126.05C241.156 125.739 241.271 125.44 241.383 125.135L241.406 125.081L241.507 124.877C241.575 124.741 241.651 124.61 241.734 124.483C241.76 124.44 241.857 124.241 241.78 124.405C241.702 124.569 241.78 124.405 241.834 124.345L241.941 124.235L241.97 124.273C242.033 124.379 242.096 124.494 242.154 124.603L242.182 124.655L242.214 124.753C242.269 124.9 242.315 125.04 242.358 125.201C242.418 125.417 242.461 125.638 242.507 125.857C242.53 125.96 242.559 126.064 242.579 126.17C242.608 126.323 242.634 126.478 242.657 126.63L242.677 126.771L242.703 126.97V127.053C242.74 127.372 242.769 127.691 242.795 128.013C242.866 128.896 242.896 129.781 242.884 130.667V130.77C242.884 131.046 242.994 131.311 243.189 131.506C243.384 131.701 243.649 131.811 243.925 131.811C244.201 131.811 244.465 131.701 244.661 131.506C244.856 131.311 244.965 131.046 244.965 130.77C244.965 129.908 244.945 129.022 244.885 128.151C244.851 127.658 244.805 127.167 244.747 126.676L244.965 126.489C246.018 125.566 247.176 124.771 248.415 124.12C248.566 124.044 248.725 123.985 248.89 123.945C248.806 124.166 248.804 124.46 248.703 124.707C248.145 125.917 247.379 127.021 246.44 127.967C246.242 128.158 246.127 128.42 246.121 128.695C246.116 128.97 246.219 129.236 246.41 129.435C246.601 129.633 246.862 129.748 247.138 129.754C247.413 129.76 247.679 129.656 247.878 129.465C248.032 129.351 248.187 129.239 248.343 129.129C248.786 128.82 249.246 128.538 249.724 128.286C250.163 128.059 251.569 127.381 251.785 127.999C252 128.617 250.968 129.928 250.589 130.431C250.178 130.977 249.728 131.493 249.243 131.975C248.43 132.786 249.505 134.292 250.505 133.611C251.46 132.92 252.527 132.4 253.659 132.073C253.944 131.986 254.243 131.956 254.539 131.984C254.569 131.988 254.598 131.996 254.625 132.007L254.608 132.064C254.561 132.243 254.489 132.414 254.395 132.573C252.811 135.131 250.875 137.453 248.645 139.473C248.32 139.806 247.987 140.128 247.656 140.453L240.595 130.445L240.253 130.411C240.273 130.384 240.272 130.352 240.273 130.319Z" fill="black"/>
<path d="M544.811 333.28V344.561H9.41106C7.19653 344.43 4.97637 344.425 2.76119 344.544V339.441C2.76119 339.165 2.65154 338.9 2.45636 338.705C2.26118 338.51 1.99646 338.4 1.72044 338.4C1.44441 338.4 1.1797 338.51 0.984518 338.705C0.789339 338.9 0.679688 339.165 0.679688 339.441V345.602C0.68339 345.877 0.794141 346.14 0.988443 346.335C1.18274 346.53 1.44531 346.641 1.72044 346.646H545.855C546.13 346.641 546.392 346.53 546.587 346.335C546.781 346.14 546.892 345.877 546.895 345.602V333.28C546.881 333.013 546.765 332.761 546.571 332.577C546.378 332.393 546.12 332.291 545.853 332.291C545.586 332.291 545.329 332.393 545.135 332.577C544.941 332.761 544.825 333.013 544.811 333.28Z" fill="black"/>
<path d="M1.71185 331.036L15.7562 331.085L53.6344 331.212L110.013 331.404L178.326 331.634L253.28 331.89L254.744 335.955C254.81 336.172 254.943 336.363 255.123 336.5C255.304 336.637 255.523 336.714 255.75 336.72H306.267C307.044 336.76 307.823 336.76 308.601 336.72C309.59 336.614 310.358 335.038 310.901 334.314L312.525 332.091L329.2 332.146L400.101 332.387L459.613 332.589L502.704 332.735C509.463 332.758 516.216 332.885 522.987 332.804H523.872C524.139 332.79 524.391 332.674 524.575 332.481C524.759 332.287 524.861 332.03 524.861 331.762C524.861 331.495 524.759 331.238 524.575 331.044C524.391 330.85 524.139 330.734 523.872 330.72L509.828 330.674L471.953 330.545L415.571 330.355L347.258 330.122L271.933 329.866L196.407 329.61L125.504 329.372L65.9911 329.17L22.8977 329.024C16.1415 329.001 9.38523 328.874 2.61747 328.955H1.7291C1.45307 328.952 1.18745 329.06 0.99065 329.253C0.793853 329.447 0.682011 329.711 0.679723 329.987C0.677436 330.263 0.784892 330.529 0.978453 330.725C1.17201 330.922 1.43582 331.034 1.71185 331.036ZM309.949 332.08L308.081 334.639H256.477L255.491 331.896L309.949 332.08ZM68.7655 305.38C76.0297 305.412 83.2948 305.441 90.5609 305.466L128.816 305.607C145.654 305.664 162.492 305.719 179.329 305.771C198.726 305.832 218.126 305.886 237.528 305.932C257.925 305.984 278.323 306.026 298.722 306.058C318.717 306.089 338.714 306.11 358.712 306.122C376.901 306.122 395.092 306.111 413.283 306.09C428.102 306.067 442.923 306.017 457.745 305.94C467.681 305.88 477.619 305.82 487.555 305.653C490.201 305.604 492.848 305.552 495.491 305.443C495.65 305.437 495.806 305.396 495.948 305.322C495.971 305.316 495.994 305.308 496.017 305.299C499.058 303.942 494.231 299.753 493.211 298.546C490.623 295.481 488.087 292.35 485.428 289.346C483.821 287.529 480.319 288.299 478.056 288.331C469.075 288.452 460.093 288.483 451.112 288.521C437.036 288.576 422.959 288.608 408.881 288.616C391.361 288.637 373.84 288.643 356.317 288.636C336.767 288.636 317.217 288.624 297.667 288.601C277.786 288.58 257.907 288.555 238.031 288.527C219.223 288.502 200.415 288.471 181.606 288.435L133.479 288.322C121.613 288.299 109.75 288.274 97.8893 288.245L79.7768 288.202C79.35 288.134 78.9138 288.157 78.496 288.267C78.0783 288.377 77.6881 288.573 77.3503 288.843C76.3943 289.81 75.5066 290.843 74.6938 291.933L70.1196 297.255L66.4885 301.481C65.7985 302.283 64.8268 303.117 65.2408 304.276C65.718 305.673 67.5609 305.377 68.7655 305.38ZM67.788 303.129L71.4364 298.882C73.7076 295.94 76.1317 293.118 78.6986 290.43C78.7499 290.391 78.7913 290.341 78.8194 290.283C78.9062 290.295 78.9942 290.295 79.081 290.283C79.3779 290.267 79.6754 290.267 79.9723 290.283L86.7141 290.3L114.119 290.364L156.062 290.453C173.423 290.487 190.785 290.519 208.148 290.548L265.91 290.634C285.569 290.661 305.228 290.68 324.885 290.691C343.527 290.703 362.168 290.703 380.81 290.691C396.8 290.691 412.79 290.675 428.779 290.643C440.701 290.616 452.624 290.572 464.55 290.51C468.534 290.483 472.518 290.449 476.501 290.407C477.901 290.39 479.301 290.372 480.699 290.346L482.36 290.315C482.648 290.315 483.709 290.335 483.461 290.206C484.163 290.574 484.899 291.902 485.393 292.506L489.326 297.157L493.351 301.933L494.576 303.37C487.886 303.626 481.184 303.658 474.491 303.724C462.094 303.846 449.696 303.919 437.298 303.942C420.9 304 404.503 304.029 388.106 304.031C369.057 304.043 350.006 304.037 330.954 304.014C310.894 303.991 290.836 303.96 270.78 303.919C250.832 303.879 230.884 303.831 210.937 303.776C192.754 303.728 174.569 303.673 156.384 303.612C141.306 303.564 126.226 303.512 111.146 303.456L79.3944 303.336L70.0449 303.298C69.4699 303.298 68.478 303.12 67.7449 303.169L67.788 303.129Z" fill="black"/>
</svg>
