<svg width="24" height="24" viewBox="0 0 24 24" fill="none" xmlns="http://www.w3.org/2000/svg">
<path fill-rule="evenodd" clip-rule="evenodd" d="M2.9978 7.4993C2.9978 7.0844 3.33415 6.74805 3.74906 6.74805H20.2491C20.664 6.74805 21.0003 7.0844 21.0003 7.4993C21.0003 7.91421 20.664 8.25056 20.2491 8.25056H3.74906C3.33415 8.25056 2.9978 7.91421 2.9978 7.4993ZM2.9978 11.9994C2.9978 11.5845 3.33415 11.2482 3.74906 11.2482H20.2491C20.664 11.2482 21.0003 11.5845 21.0003 11.9994C21.0003 12.4143 20.664 12.7507 20.2491 12.7507H3.74906C3.33415 12.7507 2.9978 12.4143 2.9978 11.9994ZM2.9978 16.4995C2.9978 16.0846 3.33415 15.7483 3.74906 15.7483H20.2491C20.664 15.7483 21.0003 16.0846 21.0003 16.4995C21.0003 16.9144 20.664 17.2508 20.2491 17.2508H3.74906C3.33415 17.2508 2.9978 16.9144 2.9978 16.4995Z" fill="#27272A"/>
</svg>
