<svg width="191" height="188" viewBox="0 0 191 188" fill="none" xmlns="http://www.w3.org/2000/svg">
<g clip-path="url(#clip0_581_5045)">
<path d="M27.5868 141.329C30.3666 142.315 33.167 143.277 35.5337 144.785C37.9624 146.335 39.7303 148.731 40.5935 151.468C45.2898 166.309 41.8698 184.105 64.327 184.635C65.5124 184.664 66.702 184.545 67.842 184.216C79.8863 180.743 78.5481 160.247 92.29 158.143C100.402 156.762 106.949 164.086 113.297 169.297C130.587 184.409 153.999 177.114 152.499 152.997C152.442 152.085 152.483 151.164 152.644 150.26C155.197 136.011 167.741 133.479 178.381 127.865C182.536 125.674 185.25 121.413 185.188 116.735C185.047 106.453 173.453 96.6957 165.114 91.2501C164.771 91.0281 164.416 90.8308 164.056 90.6377C155.432 85.9442 153.243 73.0186 156.584 64.1001C157.315 62.1438 158.559 60.4218 160.153 59.0614C169.95 50.706 182.011 39.6216 175.642 26.3261C174.816 24.6041 173.569 23.1081 172.045 21.9491C158.373 11.5182 140.158 20.8435 124.73 19.8119C123.921 19.7585 123.115 19.6393 122.335 19.4256C112.038 16.6597 104.904 6.60276 94.7477 3.03126C82.567 -1.24713 67.6024 6.31096 63.7446 18.5379C63.6166 18.9406 63.5257 19.3557 63.4431 19.7708C58.2264 45.7906 35.9509 16.3679 16.9468 19.0886C13.3574 19.6023 10.1935 21.723 8.25223 24.7685C-2.23495 41.2327 7.27744 46.0166 19.3342 57.6106C21.1598 59.3655 22.4527 61.626 22.9153 64.1083C24.6914 73.6762 15.1335 82.8001 19.1566 92.4255C19.5779 93.4365 20.1685 94.3736 20.8583 95.2325C32.7664 110.032 26.2816 115.552 21.5357 122.136C16.637 128.938 19.6729 138.514 27.5868 141.329Z" fill="#EDE9FE"/>
<path d="M172.945 66.5578C172.945 66.5578 179.942 60.3395 181.342 60.5656C182.743 60.7916 176.646 66.3605 176.646 66.3605C176.646 66.3605 183.552 62.1849 184.544 62.5877C185.535 62.9904 177.91 67.573 177.91 67.573C177.91 67.573 185.494 64.4289 186.353 65.1029C187.212 65.7769 182.904 68.173 179.649 69.1881C176.39 70.2074 172.945 66.5578 172.945 66.5578Z" fill="#FACEBB"/>
<path d="M172.945 66.5578C172.945 66.5578 179.942 60.3395 181.342 60.5656C182.743 60.7916 176.646 66.3605 176.646 66.3605C176.646 66.3605 183.552 62.1849 184.544 62.5877C185.535 62.9904 177.91 67.573 177.91 67.573C177.91 67.573 185.494 64.4289 186.353 65.1029C187.212 65.7769 182.904 68.173 179.649 69.1881C176.39 70.2074 172.945 66.5578 172.945 66.5578Z" fill="#FFEFE9"/>
<path d="M172.945 66.5578C172.945 66.5578 179.942 60.3395 181.342 60.5656C182.743 60.7916 176.646 66.3605 176.646 66.3605C176.646 66.3605 183.552 62.1849 184.544 62.5877C185.535 62.9904 177.91 67.573 177.91 67.573C177.91 67.573 185.494 64.4289 186.353 65.1029C187.212 65.7769 182.904 68.173 179.649 69.1881C176.39 70.2074 172.945 66.5578 172.945 66.5578Z" fill="#FFEFE9"/>
<path d="M123.07 78.9985C123.07 78.9985 129.022 78.1272 135.16 82.4425C141.298 86.7538 155.267 101.673 155.267 101.673L168.811 68.3867L179.463 70.9513C179.463 70.9513 170.616 119.978 162.132 121.248C153.644 122.514 128.663 107.061 128.663 107.061" fill="#F2AB53"/>
<path d="M155.271 101.669L153.264 106.424L153.66 99.9678L155.271 101.669Z" fill="#FFE2D9"/>
<path d="M132.144 109.124C131.76 103.042 129.843 96.1494 129.843 96.1494C129.818 99.9552 129.562 105.988 129.492 107.558C130.095 107.92 131.004 108.463 132.144 109.124Z" fill="#FFE2D9"/>
<path d="M170.624 68.8185C170.624 68.8185 165.408 64.5196 164.821 62.7687C164.235 61.0179 172.405 66.0936 172.405 66.0936C172.405 66.0936 176.333 65.7977 176.51 68.8185C176.51 68.8185 188.517 65.5059 189.059 67.3061C189.6 69.1021 178.526 70.7214 178.526 70.7214L170.624 68.8185Z" fill="#FACEBB"/>
<path d="M17.9051 66.7268C17.9051 66.7268 10.9082 60.5085 9.50794 60.7345C8.10772 60.9606 14.2042 66.5295 14.2042 66.5295C14.2042 66.5295 7.29816 62.3538 6.30686 62.7566C5.31555 63.1594 12.9403 67.7419 12.9403 67.7419C12.9403 67.7419 5.35686 64.5978 4.49773 65.2719C3.63859 65.9459 7.94664 68.3419 11.2014 69.3571C14.4603 70.3763 17.9051 66.7268 17.9051 66.7268Z" fill="#FACEBB"/>
<path d="M17.9051 66.7268C17.9051 66.7268 10.9082 60.5085 9.50794 60.7345C8.10772 60.9606 14.2042 66.5295 14.2042 66.5295C14.2042 66.5295 7.29816 62.3538 6.30686 62.7566C5.31555 63.1594 12.9403 67.7419 12.9403 67.7419C12.9403 67.7419 5.35686 64.5978 4.49773 65.2719C3.63859 65.9459 7.94664 68.3419 11.2014 69.3571C14.4603 70.3763 17.9051 66.7268 17.9051 66.7268Z" fill="#FFEFE9"/>
<path d="M17.9051 66.7268C17.9051 66.7268 10.9082 60.5085 9.50794 60.7345C8.10772 60.9606 14.2042 66.5295 14.2042 66.5295C14.2042 66.5295 7.29816 62.3538 6.30686 62.7566C5.31555 63.1594 12.9403 67.7419 12.9403 67.7419C12.9403 67.7419 5.35686 64.5978 4.49773 65.2719C3.63859 65.9459 7.94664 68.3419 11.2014 69.3571C14.4603 70.3763 17.9051 66.7268 17.9051 66.7268Z" fill="#FFEFE9"/>
<path d="M61.5554 80.659C68.5193 75.6449 86.9204 84.9168 93.8596 83.6921V72.8584C93.8596 72.8584 94.1693 72.9118 94.7311 73.0105C95.2928 72.9118 95.6026 72.8584 95.6026 72.8584V83.6921C102.542 84.9209 121.839 74.6832 130.083 80.659C135.292 84.436 129.357 105.627 127.126 125.716C128.815 148.004 128.163 160.177 128.163 160.177H95.6026H93.8596H63.4761C63.4761 160.177 60.7417 148.542 63.4513 125.716C61.3985 105.832 56.793 84.0866 61.5554 80.659Z" fill="#F2AB53"/>
<path d="M92.9395 89.9475C92.9395 90.4941 93.2864 90.938 93.7118 90.938C94.1373 90.938 94.4842 90.4941 94.4842 89.9475C94.4842 89.4009 94.1373 88.957 93.7118 88.957C93.2864 88.957 92.9395 89.4009 92.9395 89.9475Z" fill="#F9BBCC"/>
<path d="M92.7441 103.802C92.7441 104.349 93.0911 104.792 93.5165 104.792C93.942 104.792 94.2889 104.349 94.2889 103.802C94.2889 103.255 93.942 102.812 93.5165 102.812C93.0911 102.812 92.7441 103.255 92.7441 103.802Z" fill="white"/>
<path d="M92.5469 117.657C92.5469 118.203 92.8938 118.647 93.3193 118.647C93.7447 118.647 94.0917 118.203 94.0917 117.657C94.0917 117.11 93.7447 116.666 93.3193 116.666C92.8938 116.666 92.5469 117.11 92.5469 117.657Z" fill="white"/>
<path d="M92.3477 131.511C92.3477 132.058 92.6946 132.501 93.1201 132.501C93.5455 132.501 93.8924 132.058 93.8924 131.511C93.8924 130.964 93.5455 130.521 93.1201 130.521C92.6946 130.521 92.3477 130.964 92.3477 131.511Z" fill="white"/>
<path d="M92.1543 145.365C92.1543 145.912 92.5013 146.356 92.9267 146.356C93.3521 146.356 93.6991 145.912 93.6991 145.365C93.6991 144.819 93.3521 144.375 92.9267 144.375C92.5013 144.375 92.1543 144.819 92.1543 145.365Z" fill="white"/>
<path d="M94.7852 96.6713H96.6894C99.8863 96.6713 102.48 94.0902 102.48 90.9092V74.7943C102.48 73.3641 101.315 72.2051 99.8781 72.2051H91.5924C90.155 72.2051 88.9902 73.3641 88.9902 74.7943V90.9092C88.9944 94.0944 91.5883 96.6713 94.7852 96.6713Z" fill="#FACEBB"/>
<path d="M102.48 79.5492C98.362 82.2412 93.6615 83.655 88.9941 83.3632V72.209H102.48V79.5492Z" fill="#FFEFE9"/>
<path d="M102.48 79.5492C98.362 82.2412 93.6615 83.655 88.9941 83.3632V72.209H102.48V79.5492Z" fill="#FFEFE9"/>
<path d="M102.48 79.5492C98.362 82.2412 93.6615 83.655 88.9941 83.3632V72.209H102.48V79.5492Z" fill="#FFEFE9"/>
<path d="M74.9335 49.0047C71.1418 61.9221 76.8335 75.8135 88.1591 79.1055C99.4848 82.3976 112.153 73.8408 115.945 60.9234C119.736 48.006 111.294 35.0804 99.9681 31.7884C88.6424 28.5005 78.7252 36.0873 74.9335 49.0047Z" fill="#FACEBB"/>
<path d="M99.969 31.7882C98.5729 31.3813 97.1974 31.1429 95.855 31.0566C99.114 34.5336 102.034 39.3381 104.727 44.3398C111.109 56.2051 108.085 71.1404 97.6848 76.6805C94.2731 78.4971 90.4896 79.0725 86.7227 78.6122C87.1935 78.793 87.6685 78.9656 88.16 79.1054C99.4857 82.3974 112.154 73.8406 115.945 60.9232C119.737 48.0058 111.295 35.0802 99.969 31.7882Z" fill="#FFEFE9"/>
<path d="M113.699 60.7963C112.013 63.1759 111.101 65.9583 113.125 67.3804C115.148 68.8024 119.349 68.3215 121.034 65.9419C122.72 63.5623 122.443 60.484 120.419 59.0619C118.391 57.6399 115.384 58.4167 113.699 60.7963Z" fill="#FACEBB"/>
<path d="M118.986 65.543C119.945 64.1909 119.788 62.4401 118.635 61.6304C117.483 60.8249 115.773 61.2646 114.815 62.6168C114.575 62.9538 114.364 63.3072 114.199 63.6607" stroke="#F5A8A4" stroke-width="0.5" stroke-miterlimit="10" stroke-linecap="round" stroke-linejoin="round"/>
<path d="M113.834 64.935C114.069 65.1898 114.404 65.346 114.776 65.346C115.482 65.346 116.056 64.7747 116.056 64.0719C116.056 63.3691 115.482 62.7979 114.776 62.7979" stroke="#F5A8A4" stroke-width="0.5" stroke-miterlimit="10" stroke-linecap="round" stroke-linejoin="round"/>
<path d="M94.104 48.7249C94.4667 48.7249 94.7607 48.4323 94.7607 48.0714C94.7607 47.7105 94.4667 47.418 94.104 47.418C93.7413 47.418 93.4473 47.7105 93.4473 48.0714C93.4473 48.4323 93.7413 48.7249 94.104 48.7249Z" fill="#A36D66"/>
<path d="M113.699 60.7963C112.013 63.1759 111.101 65.9583 113.125 67.3804C115.148 68.8024 119.349 68.3215 121.034 65.9419C122.72 63.5623 122.443 60.484 120.419 59.0619C118.391 57.6399 115.384 58.4167 113.699 60.7963Z" fill="#FFEFE9"/>
<path d="M80.8789 47.4181C80.8789 47.7798 81.1722 48.0716 81.5356 48.0716C81.8991 48.0716 82.1924 47.7798 82.1924 47.4181C82.1924 47.0565 81.8991 46.7646 81.5356 46.7646C81.1722 46.7646 80.8789 47.0606 80.8789 47.4181Z" fill="#A36D66"/>
<path d="M97.1158 44.4304C97.0621 44.4304 97.0126 44.3934 97.0002 44.34C96.9836 44.2701 96.5293 42.659 94.526 42.5851C94.4599 42.5809 94.4062 42.5275 94.4104 42.4618C94.4145 42.396 94.4641 42.3508 94.5343 42.3467C96.7193 42.4248 97.2273 44.2619 97.2315 44.2783C97.248 44.3441 97.2108 44.4057 97.1447 44.4222C97.1323 44.4263 97.1241 44.4304 97.1158 44.4304Z" fill="#1C1C1C"/>
<path d="M80.8946 44.8822C80.7253 44.8822 80.5518 44.8699 80.3659 44.8452C80.2999 44.837 80.2544 44.7754 80.2627 44.7096C80.2709 44.6438 80.3288 44.5945 80.399 44.6068C82.1214 44.837 83.1003 43.7725 83.1127 43.7643C83.1581 43.715 83.2325 43.7109 83.282 43.7561C83.3316 43.8013 83.3357 43.8753 83.2903 43.9246C83.249 43.9657 82.4105 44.8822 80.8946 44.8822Z" fill="#1C1C1C"/>
<path d="M87.1564 46.7686C87.1564 46.7686 85.9214 50.4551 84.9962 52.9909C84.9962 52.9909 83.2201 52.5306 82.4106 52.8389C81.601 53.1471 83.026 54.9513 84.7856 55.7569C84.7856 55.7569 86.1775 56.6241 87.7306 55.424" stroke="#A36D66" stroke-width="0.5" stroke-miterlimit="10" stroke-linecap="round" stroke-linejoin="round"/>
<path opacity="0.86" d="M98.2046 56.0488C98.0063 57.5243 99.5593 58.9463 101.67 59.2258C103.785 59.5052 105.656 58.5394 105.854 57.064C106.052 55.5885 104.499 54.1665 102.389 53.887C100.274 53.6075 98.3987 54.5734 98.2046 56.0488Z" fill="#F5A8A4"/>
<path opacity="0.86" d="M72.6957 55.3215C74.8263 55.3215 76.5535 54.1162 76.5535 52.6295C76.5535 51.1427 74.8263 49.9375 72.6957 49.9375C70.5651 49.9375 68.8379 51.1427 68.8379 52.6295C68.8379 54.1162 70.5651 55.3215 72.6957 55.3215Z" fill="#F5A8A4"/>
<path d="M98.75 98.6765L107.618 102.297C107.618 102.297 110.988 94.5954 108.407 85.3975" stroke="white" stroke-width="0.5" stroke-miterlimit="10" stroke-linecap="round" stroke-linejoin="round"/>
<path d="M89.2256 96.8808L81.0763 99.6139C81.0763 99.6139 79.4241 93.6217 82.9143 85.332" stroke="white" stroke-width="0.5" stroke-miterlimit="10" stroke-linecap="round" stroke-linejoin="round"/>
<path d="M127.113 160.178H64.3512C64.3512 160.178 64.0786 249.021 70.6955 353.26H79.0431C79.0431 353.26 89.4725 231.205 94.9825 177.439L98.291 178.048C98.291 178.048 102.343 236.757 112.537 353.26H120.946C120.946 353.26 127.398 207.626 127.113 160.178Z" fill="#4E2A3E"/>
<path d="M94.0074 160.86L92.3594 173.576L100.608 175.204" stroke="white" stroke-width="0.5" stroke-miterlimit="10" stroke-linecap="round" stroke-linejoin="round"/>
<path d="M77.0854 163.663C77.0854 163.663 75.3713 170.572 66.875 170.654" stroke="white" stroke-width="0.5" stroke-miterlimit="10" stroke-linecap="round" stroke-linejoin="round"/>
<path d="M112.686 163.663C112.686 163.663 114.4 170.572 122.896 170.654" stroke="white" stroke-width="0.5" stroke-miterlimit="10" stroke-linecap="round" stroke-linejoin="round"/>
<path d="M116.487 58.6383C116.487 58.6383 110.469 54.4832 107.433 46.7689C107.433 46.7689 100.304 49.3253 100.304 37.1764C100.304 37.1764 80.0651 45.8195 75.1499 37.1764C70.2346 28.5334 81.172 14.8022 90.8827 27.8799C90.8827 27.8799 91.4486 23.1494 94.5257 23.2316C97.6029 23.3138 92.9397 29.1827 92.9397 29.1827C92.9397 29.1827 115.141 27.2264 114.199 39.3752C114.199 39.3752 117.433 36.3586 118.255 36.8477C119.073 37.3367 114.567 40.189 114.567 40.189C114.567 40.189 121.613 40.5959 123.336 44.3071C125.054 48.0183 116.487 58.6383 116.487 58.6383Z" fill="#3A3134"/>
<path d="M83.0085 54.8574C83.0085 54.8574 84.9745 56.5712 86.1724 56.2342C87.3702 55.8972 90.2574 54.0642 94.4993 56.7849C98.7413 59.5057 105.354 72.3696 115.738 58.0631L116.49 58.6385C116.49 58.6385 110.472 66.0733 111.967 69.1639C111.967 69.1639 106.796 83.3225 87.7295 81.2429C68.6635 79.1633 67.6267 63.2374 73.7687 56.5548C73.7645 56.5548 77.6224 54.2162 83.0085 54.8574Z" fill="#3A3134"/>
<path d="M84.9499 60.734C84.9499 60.734 83.8554 58.1571 82.9962 58.6379C82.1371 59.1188 83.4919 61.9464 83.4919 61.9464C83.4919 61.9464 81.9141 61.5395 81.9141 62.8012C81.9141 64.0589 84.6236 64.5973 85.301 62.2628" stroke="#D8908B" stroke-width="0.5" stroke-miterlimit="10" stroke-linecap="round" stroke-linejoin="round"/>
<path d="M73.9355 124.828C73.9355 124.828 96.116 124.289 117.793 128.062C117.793 128.062 98.1192 123.032 77.0871 123.389" stroke="white" stroke-width="0.5" stroke-miterlimit="10" stroke-linecap="round" stroke-linejoin="round"/>
<path d="M67.7795 79.1674C67.7795 79.1674 61.8276 78.2961 55.6898 82.6115C49.5519 86.9228 35.5828 101.842 35.5828 101.842L22.0391 68.5557L11.3867 71.1202C11.3867 71.1202 20.2341 120.147 28.718 121.417C37.2019 122.687 62.1869 107.23 62.1869 107.23" fill="#F2AB53"/>
<path d="M35.5801 101.837L37.5875 106.592L37.1909 100.136L35.5801 101.837Z" fill="#FFE2D9"/>
<path d="M60.9906 96.1533C60.9906 96.1533 59.0327 103.185 58.6816 109.313C59.8258 108.647 60.7427 108.101 61.3499 107.735C61.2921 106.506 61.0195 100.115 60.9906 96.1533Z" fill="#FFE2D9"/>
<path d="M20.2265 68.9867C20.2265 68.9867 25.4433 64.6878 26.0298 62.9369C26.6163 61.1861 18.4505 66.2577 18.4505 66.2577C18.4505 66.2577 14.5224 65.9618 14.3448 68.9826C14.3448 68.9826 2.33763 65.67 1.79655 67.4702C1.25546 69.2662 12.3292 70.8855 12.3292 70.8855L20.2265 68.9867Z" fill="#FACEBB"/>
<path d="M66.875 172.166C66.875 172.166 67.0237 172.178 67.288 172.182" stroke="white" stroke-width="0.5" stroke-linecap="round" stroke-linejoin="round"/>
<path d="M68.1387 172.161C70.5715 172.005 75.8832 170.957 78.4441 164.961" stroke="white" stroke-width="0.5" stroke-linecap="round" stroke-linejoin="round" stroke-dasharray="2.08 2.08"/>
<path d="M78.6094 164.558C78.6589 164.431 78.7085 164.303 78.7539 164.172" stroke="white" stroke-width="0.5" stroke-linecap="round" stroke-linejoin="round"/>
<path d="M110.848 164.172C110.848 164.172 112.735 172.256 122.896 172.704" stroke="white" stroke-width="0.5" stroke-miterlimit="10" stroke-linecap="round" stroke-linejoin="round" stroke-dasharray="2 2"/>
<path d="M95.2313 161.118L93.7402 172.708L100.423 173.83" stroke="white" stroke-width="0.5" stroke-miterlimit="10" stroke-linecap="round" stroke-linejoin="round" stroke-dasharray="2 2"/>
<path d="M98.2921 178.047L92.1543 177.064" stroke="white" stroke-width="0.5" stroke-miterlimit="10" stroke-linecap="round" stroke-linejoin="round"/>
<path d="M123.578 175.984V215.332" stroke="white" stroke-width="0.5" stroke-miterlimit="10" stroke-linecap="round" stroke-linejoin="round" stroke-dasharray="2 2"/>
<path d="M89.7246 204.416L92.3598 179.083" stroke="white" stroke-width="0.5" stroke-miterlimit="10" stroke-linecap="round" stroke-linejoin="round" stroke-dasharray="2 2"/>
<path d="M64.3516 160.178H127.114V162.915L64.3516 161.546V160.178Z" fill="#DB7298"/>
<path d="M116.486 58.6379L115.735 58.0625C111.679 63.652 108.197 65.0904 105.21 64.6137C103.558 72.1389 96.3134 77.8064 87.623 77.8064C79.4901 77.8064 72.6253 72.8417 70.4238 66.0357C70.589 72.7307 75.3638 79.8942 87.7221 81.2423C106.788 83.3219 111.959 69.1633 111.959 69.1633C110.473 66.0727 116.486 58.6379 116.486 58.6379Z" fill="#2D2427"/>
<path d="M123.335 44.311C121.613 40.6038 114.566 40.1928 114.566 40.1928C114.566 40.1928 119.072 37.3406 118.255 36.8515C117.437 36.3624 114.199 39.3791 114.199 39.3791C114.467 35.9186 112.856 33.6047 110.419 32.0635C114.099 36.3378 109.919 44.5576 105.611 44.3068C100.374 43.9986 102.481 33.3869 102.481 33.3869C102.481 33.3869 91.002 40.123 81.787 38.5078C76.5703 37.5913 74.6868 33.9705 74.0383 30.999C73.7492 33.0786 74.0548 35.2528 75.1494 37.1803C80.0646 45.8234 100.304 37.1803 100.304 37.1803C100.304 49.3291 107.433 46.7728 107.433 46.7728C110.465 54.4912 116.483 58.6421 116.483 58.6421C116.483 58.6421 125.053 48.0181 123.335 44.311Z" fill="#2D2427"/>
<path d="M93.8606 160.177H95.6036H128.164C128.164 160.177 128.816 148.004 127.127 125.716C128.346 114.722 130.675 103.403 131.683 94.785C131.625 90.3217 131.386 88.949 130.824 93.848C128.858 111.019 120.874 128.059 120.874 128.059C120.874 128.059 122.497 152.311 102.485 156.265C87.0536 159.314 69.8504 156.807 62.7832 155.5C63.1136 158.608 63.4812 160.177 63.4812 160.177H93.8606Z" fill="#F2AB53"/>
<path d="M149.336 42.0384C150.207 41.5575 150.786 40.7397 151.062 39.5807C151.314 38.545 151.133 37.5833 150.525 36.6955C149.918 35.8119 149.03 35.2283 147.87 34.9529C146.655 34.6652 145.585 34.768 144.66 35.2612C143.735 35.7544 143.14 36.5435 142.876 37.6285C142.607 38.7381 142.768 39.7204 143.359 40.5753C143.95 41.4301 144.863 42.0055 146.098 42.3014C147.386 42.6055 148.464 42.5192 149.336 42.0384Z" fill="#FFE1A6"/>
<path d="M157.837 30.0008C158.592 29.7336 159.307 29.2774 159.972 28.6363C160.641 27.991 161.112 27.091 161.393 25.932C161.707 24.6291 161.616 23.3756 161.124 22.1755C160.633 20.9754 159.786 19.9315 158.588 19.0438C157.391 18.1602 155.932 17.5108 154.21 17.0998C154.053 17.0628 153.884 17.0341 153.723 16.9971C151.311 17.0916 148.865 17.3505 146.408 17.6834L145.697 22.5701C147.304 22.2906 148.956 22.3523 150.654 22.7591C152.57 23.2153 153.434 23.8318 153.248 24.6045C153.182 24.8716 152.996 25.0689 152.682 25.1963C152.368 25.3278 151.819 25.4758 151.034 25.6443C149.658 25.9279 148.535 26.3101 147.659 26.7909C146.788 27.2718 146.205 28.1143 145.916 29.3226C145.743 30.046 145.722 31.0365 145.854 32.2941L150.947 33.5106L151.112 32.8243C151.269 32.1749 151.641 31.7146 152.232 31.4474C152.822 31.1803 153.719 30.9337 154.929 30.7118C156.11 30.5022 157.081 30.2679 157.837 30.0008Z" fill="#FFE1A6"/>
<path d="M146.849 37.9125C146.259 37.0576 146.102 36.0753 146.366 34.9657C146.626 33.8806 147.221 33.0916 148.151 32.5984C149.076 32.1052 150.146 32.0024 151.36 32.2901C152.525 32.5696 153.409 33.1491 154.016 34.0327C154.623 34.9163 154.801 35.8781 154.553 36.9179C154.272 38.0768 153.698 38.8947 152.826 39.3756C151.955 39.8564 150.877 39.9427 149.592 39.6386C148.353 39.3427 147.44 38.7673 146.849 37.9125ZM149.41 26.6596C149.699 25.4513 150.282 24.6087 151.153 24.1279C152.025 23.647 153.148 23.2648 154.528 22.9812C155.313 22.8127 155.862 22.6607 156.176 22.5332C156.49 22.4058 156.676 22.2086 156.742 21.9414C156.928 21.1688 156.064 20.5564 154.148 20.0961C152.45 19.6892 150.798 19.6276 149.191 19.907L150.009 14.2847C151.269 14.0504 152.591 13.9518 153.966 13.9847C155.342 14.0217 156.589 14.1696 157.704 14.4368C159.427 14.8477 160.885 15.4971 162.083 16.3807C163.28 17.2644 164.123 18.3083 164.619 19.5125C165.11 20.7167 165.201 21.9661 164.887 23.2689C164.606 24.4279 164.135 25.328 163.466 25.9732C162.797 26.6185 162.087 27.0747 161.331 27.3377C160.575 27.6048 159.608 27.8391 158.431 28.0405C157.225 28.2624 156.325 28.509 155.734 28.7762C155.143 29.0433 154.772 29.5036 154.615 30.153L154.449 30.8393L149.357 29.6228C149.212 28.3734 149.237 27.3829 149.41 26.6596Z" fill="#3A3134"/>
<path d="M41.14 38.71C41.4746 39.906 41.3754 40.9253 40.8467 41.7637C40.318 42.6062 39.5209 43.4816 38.4552 44.394C37.8522 44.9201 37.4433 45.3146 37.2326 45.5818C37.022 45.8448 36.9517 46.1078 37.0261 46.3709C37.2409 47.1353 38.2941 47.2545 40.1941 46.7325C41.8752 46.2681 43.3498 45.5283 44.622 44.5091L46.6459 49.8232C45.6546 50.6369 44.5517 51.3603 43.3291 51.9932C42.1065 52.6261 40.9459 53.0947 39.8389 53.3988C38.133 53.8714 36.5387 54.0071 35.0641 53.8098C33.5854 53.6125 32.338 53.107 31.322 52.2932C30.3059 51.4795 29.6161 50.4273 29.2567 49.1368C28.9387 47.9902 28.9139 46.9709 29.1824 46.0873C29.455 45.1996 29.8556 44.4598 30.3885 43.8638C30.9213 43.2679 31.6524 42.5939 32.5817 41.85C33.5317 41.0732 34.1967 40.4239 34.585 39.906C34.9691 39.3882 35.0724 38.8046 34.8948 38.1593L34.7048 37.4771L39.7522 36.0838C40.475 37.1154 40.9376 37.9949 41.14 38.71ZM37.8976 27.6298C38.827 28.0942 39.4465 28.8751 39.7563 29.9765C40.0578 31.0533 39.9215 32.0315 39.3515 32.9069C38.7815 33.7864 37.8935 34.3905 36.6915 34.7193C35.5391 35.0358 34.4817 34.9577 33.5193 34.4727C32.557 33.9919 31.9333 33.2357 31.6483 32.2082C31.3302 31.0615 31.4335 30.0669 31.9622 29.2244C32.4909 28.3819 33.3913 27.786 34.6676 27.4366C35.8861 27.1037 36.9641 27.1654 37.8976 27.6298Z" fill="#FFE1A6"/>
<path d="M44.0462 35.3888C44.3808 36.5847 44.2817 37.604 43.753 38.4424C43.2243 39.2849 42.4271 40.1603 41.3615 41.0727C40.7584 41.5988 40.3495 41.9933 40.1389 42.2605C39.9282 42.5235 39.858 42.7866 39.9323 43.0496C40.1471 43.814 41.2004 43.9332 43.1004 43.4113C44.7815 42.9468 46.256 42.2071 47.5282 41.1878L49.5521 46.5019C48.5608 47.3157 47.458 48.039 46.2354 48.6719C45.0128 49.3048 43.8521 49.7734 42.7452 50.0775C41.0393 50.5501 39.4449 50.6858 37.9704 50.4885C36.4917 50.2912 35.2443 49.7857 34.2282 48.9719C33.2121 48.1582 32.5223 47.1061 32.163 45.8155C31.8449 44.6689 31.8202 43.6496 32.0886 42.766C32.3612 41.8783 32.7619 41.1385 33.2947 40.5426C33.8276 39.9466 34.5586 39.2726 35.488 38.5287C36.438 37.7519 37.103 37.1026 37.4912 36.5847C37.8754 36.0669 37.9786 35.4833 37.801 34.838L37.611 34.1558L42.6584 32.7625C43.3812 33.7941 43.8439 34.6695 44.0462 35.3888ZM40.8039 24.3085C41.7332 24.7729 42.3528 25.5538 42.6626 26.6552C42.9641 27.732 42.8278 28.7102 42.2578 29.5856C41.6878 30.4651 40.7997 31.0693 39.5978 31.398C38.4454 31.7145 37.388 31.6364 36.4256 31.1515C35.4632 30.6706 34.8395 29.9144 34.5545 28.8869C34.2365 27.7402 34.3397 26.7457 34.8684 25.9031C35.3971 25.0606 36.2976 24.4647 37.5739 24.1153C38.7923 23.7824 39.8704 23.8441 40.8039 24.3085Z" fill="#3A3134"/>
<path d="M7.84322 16.5167C11.1966 16.5167 13.915 13.8118 13.915 10.4751C13.915 7.13848 11.1966 4.43359 7.84322 4.43359C4.4899 4.43359 1.77148 7.13848 1.77148 10.4751C1.77148 13.8118 4.4899 16.5167 7.84322 16.5167Z" fill="#EDE9FE"/>
<path d="M1.91261 23.9059C2.69277 23.9059 3.32522 23.2766 3.32522 22.5003C3.32522 21.724 2.69277 21.0947 1.91261 21.0947C1.13245 21.0947 0.5 21.724 0.5 22.5003C0.5 23.2766 1.13245 23.9059 1.91261 23.9059Z" fill="#EDE9FE"/>
<path d="M54.113 26.0838C56.6337 26.0838 58.6771 24.0506 58.6771 21.5424C58.6771 19.0342 56.6337 17.001 54.113 17.001C51.5923 17.001 49.5488 19.0342 49.5488 21.5424C49.5488 24.0506 51.5923 26.0838 54.113 26.0838Z" fill="#EDE9FE"/>
<path d="M66.7323 2.46864C66.7323 3.55365 65.8484 4.43727 64.7539 4.43727C63.6634 4.43727 62.7754 3.55776 62.7754 2.46864C62.7754 1.37952 63.6634 0.5 64.758 0.5C65.8484 0.5 66.7323 1.37952 66.7323 2.46864Z" fill="#EDE9FE"/>
<path d="M126.821 13.9802C128.892 13.9802 130.571 12.3094 130.571 10.2484C130.571 8.18738 128.892 6.5166 126.821 6.5166C124.749 6.5166 123.07 8.18738 123.07 10.2484C123.07 12.3094 124.749 13.9802 126.821 13.9802Z" fill="#EDE9FE"/>
<path d="M183.326 15.1891C186.857 15.1891 189.719 12.3406 189.719 8.82695C189.719 5.31326 186.857 2.46484 183.326 2.46484C179.794 2.46484 176.932 5.31326 176.932 8.82695C176.932 12.3406 179.794 15.1891 183.326 15.1891Z" fill="#EDE9FE"/>
<path d="M170.41 10.7373C170.41 11.7935 169.551 12.6484 168.489 12.6484C167.427 12.6484 166.568 11.7935 166.568 10.7373C166.568 9.68103 167.427 8.82617 168.489 8.82617C169.551 8.82617 170.41 9.68514 170.41 10.7373Z" fill="#EDE9FE"/>
<path d="M185.681 46.8593C185.681 47.8908 184.838 48.7293 183.801 48.7293C182.764 48.7293 181.922 47.8908 181.922 46.8593C181.922 45.8277 182.764 44.9893 183.801 44.9893C184.838 44.9893 185.681 45.8236 185.681 46.8593Z" fill="#EDE9FE"/>
<path d="M25.3339 171.385C29.1732 167.897 29.4438 161.972 25.9383 158.152C22.4327 154.332 16.4785 154.062 12.6392 157.55C8.79988 161.039 8.52931 166.963 12.0349 170.783C15.5404 174.604 21.4946 174.873 25.3339 171.385Z" fill="#EDE9FE"/>
<path d="M15.9436 144.753C15.9436 146.068 14.8697 147.137 13.548 147.137C12.2263 147.137 11.1523 146.068 11.1523 144.753C11.1523 143.438 12.2263 142.369 13.548 142.369C14.8697 142.369 15.9436 143.438 15.9436 144.753Z" fill="#EDE9FE"/>
<path d="M3.08083 185.478C3.80397 185.478 4.39018 184.894 4.39018 184.175C4.39018 183.455 3.80397 182.872 3.08083 182.872C2.3577 182.872 1.77148 183.455 1.77148 184.175C1.77148 184.894 2.3577 185.478 3.08083 185.478Z" fill="#EDE9FE"/>
<path d="M41.842 184.175C42.4602 184.175 42.9614 183.676 42.9614 183.061C42.9614 182.446 42.4602 181.947 41.842 181.947C41.2238 181.947 40.7227 182.446 40.7227 183.061C40.7227 183.676 41.2238 184.175 41.842 184.175Z" fill="#EDE9FE"/>
<path d="M8.94632 106.593C10.7849 106.593 12.2754 105.11 12.2754 103.28C12.2754 101.451 10.7849 99.9678 8.94632 99.9678C7.10769 99.9678 5.61719 101.451 5.61719 103.28C5.61719 105.11 7.10769 106.593 8.94632 106.593Z" fill="#EDE9FE"/>
<path d="M181.083 175.6C182.122 171.182 179.365 166.762 174.924 165.729C170.484 164.695 166.043 167.439 165.004 171.857C163.965 176.275 166.722 180.694 171.163 181.728C175.603 182.762 180.044 180.018 181.083 175.6Z" fill="#EDE9FE"/>
<path d="M155.92 185.371C155.92 186.65 154.88 187.685 153.595 187.685C152.31 187.685 151.27 186.65 151.27 185.371C151.27 184.093 152.31 183.058 153.595 183.058C154.88 183.058 155.92 184.097 155.92 185.371Z" fill="#EDE9FE"/>
<path d="M166.258 146.422C166.258 147.552 165.337 148.464 164.205 148.464C163.069 148.464 162.152 147.548 162.152 146.422C162.152 145.291 163.073 144.379 164.205 144.379C165.341 144.379 166.258 145.291 166.258 146.422Z" fill="#EDE9FE"/>
<path d="M190.38 91.9003C190.38 92.977 189.505 93.8483 188.423 93.8483C187.34 93.8483 186.465 92.977 186.465 91.9003C186.465 90.8235 187.34 89.9522 188.423 89.9522C189.505 89.9481 190.38 90.8235 190.38 91.9003Z" fill="#EDE9FE"/>
<path d="M183.086 156.372C183.086 157.075 182.512 157.646 181.806 157.646C181.1 157.646 180.525 157.075 180.525 156.372C180.525 155.669 181.1 155.098 181.806 155.098C182.512 155.098 183.086 155.669 183.086 156.372Z" fill="#EDE9FE"/>
<path d="M185.68 185.461C185.68 186.172 185.097 186.752 184.383 186.752C183.668 186.752 183.086 186.172 183.086 185.461C183.086 184.75 183.668 184.171 184.383 184.171C185.097 184.175 185.68 184.75 185.68 185.461Z" fill="#EDE9FE"/>
</g>
<defs>
<clipPath id="clip0_581_5045">
<rect width="190" height="187" fill="white" transform="translate(0.5 0.5)"/>
</clipPath>
</defs>
</svg>
