<svg width="22" height="16" viewBox="0 0 22 16" fill="none" xmlns="http://www.w3.org/2000/svg">
<path fill-rule="evenodd" clip-rule="evenodd" d="M8.00416 2.49994C7.72801 2.49994 7.50415 2.7238 7.50415 2.99995C7.50415 3.27609 7.72801 3.49995 8.00416 3.49995C8.2803 3.49995 8.50416 3.27609 8.50416 2.99995C8.50416 2.7238 8.2803 2.49994 8.00416 2.49994ZM6.50226 2.99995C6.50226 2.17047 7.17468 1.49805 8.00416 1.49805C8.83363 1.49805 9.50606 2.17047 9.50606 2.99995C9.50606 3.82942 8.83363 4.50185 8.00416 4.50185C7.17468 4.50185 6.50226 3.82942 6.50226 2.99995ZM8.00416 7.50067C7.72801 7.50067 7.50415 7.72453 7.50415 8.00068C7.50415 8.27683 7.72801 8.50069 8.00416 8.50069C8.2803 8.50069 8.50416 8.27683 8.50416 8.00068C8.50416 7.72453 8.2803 7.50067 8.00416 7.50067ZM6.50226 8.00068C6.50226 7.1712 7.17468 6.49878 8.00416 6.49878C8.83363 6.49878 9.50606 7.1712 9.50606 8.00068C9.50606 8.83015 8.83363 9.50258 8.00416 9.50258C7.17468 9.50258 6.50226 8.83015 6.50226 8.00068ZM8.00416 12.5023C7.72801 12.5023 7.50415 12.7261 7.50415 13.0023C7.50415 13.2784 7.72801 13.5023 8.00416 13.5023C8.2803 13.5023 8.50416 13.2784 8.50416 13.0023C8.50416 12.7261 8.2803 12.5023 8.00416 12.5023ZM6.50226 13.0023C6.50226 12.1728 7.17468 11.5004 8.00416 11.5004C8.83363 11.5004 9.50606 12.1728 9.50606 13.0023C9.50606 13.8317 8.83363 14.5042 8.00416 14.5042C7.17468 14.5042 6.50226 13.8317 6.50226 13.0023Z" fill="#94959C" stroke="#94959C" stroke-miterlimit="10"/>
<path fill-rule="evenodd" clip-rule="evenodd" d="M14.0076 2.49994C13.7315 2.49994 13.5076 2.7238 13.5076 2.99995C13.5076 3.27609 13.7315 3.49995 14.0076 3.49995C14.2838 3.49995 14.5076 3.27609 14.5076 2.99995C14.5076 2.7238 14.2838 2.49994 14.0076 2.49994ZM12.5057 2.99995C12.5057 2.17047 13.1782 1.49805 14.0076 1.49805C14.8371 1.49805 15.5095 2.17047 15.5095 2.99995C15.5095 3.82942 14.8371 4.50185 14.0076 4.50185C13.1782 4.50185 12.5057 3.82942 12.5057 2.99995ZM14.0076 7.50067C13.7315 7.50067 13.5076 7.72453 13.5076 8.00068C13.5076 8.27683 13.7315 8.50069 14.0076 8.50069C14.2838 8.50069 14.5076 8.27683 14.5076 8.00068C14.5076 7.72453 14.2838 7.50067 14.0076 7.50067ZM12.5057 8.00068C12.5057 7.1712 13.1782 6.49878 14.0076 6.49878C14.8371 6.49878 15.5095 7.1712 15.5095 8.00068C15.5095 8.83015 14.8371 9.50258 14.0076 9.50258C13.1782 9.50258 12.5057 8.83015 12.5057 8.00068ZM14.0076 12.5023C13.7315 12.5023 13.5076 12.7261 13.5076 13.0023C13.5076 13.2784 13.7315 13.5023 14.0076 13.5023C14.2838 13.5023 14.5076 13.2784 14.5076 13.0023C14.5076 12.7261 14.2838 12.5023 14.0076 12.5023ZM12.5057 13.0023C12.5057 12.1728 13.1782 11.5004 14.0076 11.5004C14.8371 11.5004 15.5095 12.1728 15.5095 13.0023C15.5095 13.8317 14.8371 14.5042 14.0076 14.5042C13.1782 14.5042 12.5057 13.8317 12.5057 13.0023Z" fill="#94959C" stroke="#94959C" stroke-miterlimit="10"/>
</svg>
