<svg width="18" height="16" viewBox="0 0 18 16" fill="none" xmlns="http://www.w3.org/2000/svg">
<g clip-path="url(#clip0_1187_213)">
<path d="M17.8855 4.6488C17.8855 3.24224 16.7218 2.11075 15.2839 2.11075C13.3363 2.02979 11.35 1.99854 9.32004 1.99854H8.68723C6.66223 1.99854 4.67238 2.02979 2.72473 2.11106C1.29035 2.11106 0.126679 3.24881 0.126679 4.65536C0.038788 5.76779 0.00152238 6.88053 0.00363176 7.99328C0.00011613 9.10602 0.0399599 10.2198 0.123163 11.3346C0.123163 12.7412 1.28684 13.8821 2.72121 13.8821C4.76731 13.9664 6.86613 14.004 9.00012 14.0008C11.1376 14.0071 13.2306 13.9675 15.279 13.8821C16.7169 13.8821 17.8806 12.7412 17.8806 11.3346C17.965 10.2188 18.0036 9.10602 18.0001 7.99015C18.0081 6.87741 17.9699 5.76362 17.8855 4.6488ZM7.28098 11.0596V4.91761L12.3786 7.98702L7.28098 11.0596Z" fill="#94959C"/>
</g>
<defs>
<clipPath id="clip0_1187_213">
<rect width="18" height="16.0035" fill="white" transform="translate(0.00341797 -0.00195312)"/>
</clipPath>
</defs>
</svg>
