<svg width="64" height="64" viewBox="0 0 64 64" fill="none" xmlns="http://www.w3.org/2000/svg">
<g clip-path="url(#clip0_885_2467)">
<path d="M8 52.0003L21.075 22.5878C22.9875 18.2878 26.1125 14.6503 30.075 12.1253L48.4375 0.375307C48.8125 0.137807 49.25 0.0128071 49.6875 0.0128071C50.9625 0.000307089 52 1.03781 52 2.32531V2.52531C52 2.85031 51.9375 3.16281 51.825 3.46281L44.35 22.1128C44.1125 22.7003 44 23.3253 44 23.9503C44 24.6378 44.15 25.3253 44.425 25.9628L56 52.0003H30.1125L31.5875 47.5753L36.6375 45.8878C37.45 45.6128 38 44.8503 38 43.9878C38 43.1253 37.45 42.3628 36.6375 42.0878L31.5875 40.4003L29.9 35.3503C29.625 34.5503 28.8625 34.0003 28 34.0003C27.1375 34.0003 26.375 34.5503 26.1 35.3628L24.4125 40.4128L19.3625 42.1003C18.55 42.3753 18 43.1378 18 44.0003C18 44.8628 18.55 45.6253 19.3625 45.9003L24.4125 47.5878L25.8875 52.0003H8ZM34.95 17.6878C34.8125 17.2753 34.4375 17.0003 34 17.0003C33.5625 17.0003 33.1875 17.2753 33.05 17.6878L32.2125 20.2128L29.6875 21.0503C29.275 21.1878 29 21.5628 29 22.0003C29 22.4378 29.275 22.8128 29.6875 22.9503L32.2125 23.7878L33.05 26.3128C33.1875 26.7253 33.5625 27.0003 34 27.0003C34.4375 27.0003 34.8125 26.7253 34.95 26.3128L35.7875 23.7878L38.3125 22.9503C38.725 22.8128 39 22.4378 39 22.0003C39 21.5628 38.725 21.1878 38.3125 21.0503L35.7875 20.2128L34.95 17.6878ZM4 56.0003H60C62.2125 56.0003 64 57.7878 64 60.0003C64 62.2128 62.2125 64.0003 60 64.0003H4C1.7875 64.0003 0 62.2128 0 60.0003C0 57.7878 1.7875 56.0003 4 56.0003Z" fill="white"/>
</g>
<defs>
<clipPath id="clip0_885_2467">
<rect width="64" height="64" fill="white"/>
</clipPath>
</defs>
</svg>
