<svg width="16" height="12" viewBox="0 0 16 12" fill="none" xmlns="http://www.w3.org/2000/svg">
<g clip-path="url(#clip0_1187_209)">
<path d="M13.3146 1.01655C15.0473 3.6295 15.9029 6.57684 15.5831 9.96989C15.5817 9.98425 15.5744 9.99743 15.5629 10.0061C14.2508 10.9943 12.9796 11.594 11.7262 11.9918C11.7165 11.9948 11.706 11.9946 11.6963 11.9913C11.6867 11.9879 11.6783 11.9816 11.6723 11.9731C11.3828 11.5598 11.1196 11.1241 10.8891 10.6666C10.8759 10.6397 10.888 10.6072 10.9152 10.5966C11.3331 10.4351 11.7304 10.2415 12.1126 10.0124C12.1427 9.99428 12.1446 9.95003 12.1168 9.92878C12.0357 9.86702 11.9554 9.80211 11.8785 9.7372C11.8641 9.7252 11.8447 9.72284 11.8284 9.7309C9.34713 10.9062 6.62901 10.9062 4.11838 9.7309C4.10208 9.72343 4.08271 9.72599 4.06871 9.73779C3.992 9.8027 3.91146 9.86702 3.83111 9.92878C3.8033 9.95003 3.80561 9.99428 3.83591 10.0124C4.2181 10.2372 4.61544 10.4351 5.03273 10.5974C5.05977 10.608 5.07262 10.6397 5.0592 10.6666C4.83368 11.1247 4.57057 11.5604 4.27563 11.9737C4.26278 11.9904 4.24169 11.9981 4.22174 11.9918C2.97429 11.594 1.70306 10.9943 0.390979 10.0061C0.380049 9.99743 0.372186 9.98366 0.371036 9.9693C0.103711 7.03436 0.648524 4.06263 2.63735 1.01596C2.64215 1.0079 2.64943 1.00161 2.65787 0.997868C3.63647 0.537199 4.68486 0.198287 5.78063 0.00473544C5.80057 0.00158826 5.82052 0.0110298 5.83087 0.0291261C5.96626 0.275 6.12102 0.590308 6.22572 0.847984C7.38074 0.667021 8.55379 0.667021 9.73297 0.847984C9.83768 0.595816 9.98707 0.275 10.1219 0.0291261C10.1267 0.0201487 10.1341 0.0129565 10.1431 0.00857633C10.1522 0.00419613 10.1623 0.00285186 10.1721 0.00473544C11.2685 0.198877 12.3169 0.537789 13.2947 0.997868C13.3033 1.00161 13.3104 1.0079 13.3146 1.01655ZM6.81292 6.5969C6.825 5.72926 6.20827 5.01131 5.4341 5.01131C4.66626 5.01131 4.05548 5.72297 4.05548 6.5969C4.05548 7.47064 4.67834 8.18229 5.4341 8.18229C6.20213 8.18229 6.81292 7.47064 6.81292 6.5969ZM11.9105 6.5969C11.9226 5.72926 11.3059 5.01131 10.5319 5.01131C9.76385 5.01131 9.15306 5.72297 9.15306 6.5969C9.15306 7.47064 9.77593 8.18229 10.5319 8.18229C11.3059 8.18229 11.9105 7.47064 11.9105 6.5969Z" fill="#94959C"/>
</g>
<defs>
<clipPath id="clip0_1187_209">
<rect width="16" height="12" fill="white" transform="translate(0.00341797)"/>
</clipPath>
</defs>
</svg>
