<svg width="64" height="64" viewBox="0 0 64 64" fill="none" xmlns="http://www.w3.org/2000/svg">
<path fill-rule="evenodd" clip-rule="evenodd" d="M31.999 3.99707C33.1054 3.99707 34.0023 4.894 34.0023 6.00042V39.1602L40.5796 32.5829C41.362 31.8005 42.6304 31.8005 43.4128 32.5829C44.1952 33.3652 44.1952 34.6337 43.4128 35.416L33.4114 45.4175C32.629 46.1998 31.3606 46.1998 30.5782 45.4175L20.5768 35.416C19.7944 34.6337 19.7944 33.3652 20.5768 32.5829C21.3591 31.8005 22.6276 31.8005 23.4099 32.5829L29.9956 39.1686V6.00042C29.9956 4.894 30.8926 3.99707 31.999 3.99707ZM16.9994 24.0035C16.2047 24.0035 15.4425 24.3192 14.8805 24.8812C14.3185 25.4431 14.0028 26.2053 14.0028 27.0001V53.0001C14.0028 53.7949 14.3185 54.5571 14.8805 55.1191C15.4425 55.681 16.2047 55.9968 16.9994 55.9968H46.9994C47.7942 55.9968 48.5564 55.681 49.1184 55.1191C49.6804 54.5571 49.9961 53.7949 49.9961 53.0001V27.0001C49.9961 26.2053 49.6804 25.4431 49.1184 24.8812C48.5564 24.3192 47.7942 24.0035 46.9994 24.0035H41.9994C40.893 24.0035 39.9961 23.1065 39.9961 22.0001C39.9961 20.8937 40.893 19.9968 41.9994 19.9968H46.9994C48.8568 19.9968 50.6382 20.7346 51.9516 22.048C53.2649 23.3614 54.0028 25.1427 54.0028 27.0001V53.0001C54.0028 54.8575 53.2649 56.6388 51.9516 57.9522C50.6382 59.2656 48.8568 60.0035 46.9994 60.0035H16.9994C15.142 60.0035 13.3607 59.2656 12.0473 57.9522C10.7339 56.6388 9.99609 54.8575 9.99609 53.0001V27.0001C9.99609 25.1427 10.7339 23.3614 12.0473 22.048C13.3607 20.7346 15.142 19.9968 16.9994 19.9968H21.9994C23.1059 19.9968 24.0028 20.8937 24.0028 22.0001C24.0028 23.1065 23.1059 24.0035 21.9994 24.0035H16.9994Z" fill="#DBEFFE"/>
</svg>
