<svg width="16" height="16" viewBox="0 0 16 16" fill="none" xmlns="http://www.w3.org/2000/svg">
<path d="M8.00397 0.999023C4.1375 0.999023 1.00244 4.21535 1.00244 8.17871C1.00244 11.3513 3.00913 14.0394 5.79098 14.9896C5.83 14.998 5.86983 15.0022 5.90976 15.0021C6.16919 15.0021 6.26921 14.8114 6.26921 14.6457C6.26921 14.4738 6.26296 14.0237 6.25984 13.4236C6.02824 13.4779 5.7913 13.5062 5.55343 13.508C4.20626 13.508 3.89995 12.4609 3.89995 12.4609C3.58113 11.6326 3.12165 11.4107 3.12165 11.4107C2.51215 10.9824 3.11853 10.9699 3.16541 10.9699H3.16854C3.87182 11.0325 4.24065 11.7139 4.24065 11.7139C4.59072 12.3265 5.05957 12.4984 5.47842 12.4984C5.75536 12.4929 6.02802 12.429 6.27859 12.3109C6.3411 11.8483 6.52239 11.5326 6.72244 11.3513C5.16897 11.17 3.53424 10.5542 3.53424 7.80363C3.53424 7.01908 3.80618 6.37832 4.25315 5.87821C4.18126 5.69692 3.94058 4.96551 4.32191 3.9778C4.37306 3.96556 4.42564 3.9603 4.4782 3.96217C4.73138 3.96217 5.30338 4.05906 6.24733 4.71546C7.39431 4.39455 8.60737 4.39455 9.75435 4.71546C10.6983 4.05906 11.2703 3.96217 11.5235 3.96217C11.576 3.9603 11.6286 3.96556 11.6798 3.9778C12.0611 4.96551 11.8204 5.69692 11.7485 5.87821C12.1955 6.38144 12.4674 7.02221 12.4674 7.80363C12.4674 10.5605 10.8296 11.1669 9.26987 11.345C9.51992 11.5669 9.74497 12.0045 9.74497 12.6734C9.74497 13.633 9.73559 14.4082 9.73559 14.6426C9.73559 14.8114 9.83249 15.0021 10.0919 15.0021C10.1339 15.0023 10.1758 14.9981 10.2169 14.9896C13.0019 14.0394 15.0055 11.3482 15.0055 8.17871C15.0055 4.21535 11.8704 0.999023 8.00397 0.999023Z" fill="#94959C"/>
</svg>
