<svg width="16" height="16" viewBox="0 0 16 16" fill="none" xmlns="http://www.w3.org/2000/svg">
<path d="M10.0034 8C10.0034 8.39556 9.88612 8.78224 9.66636 9.11114C9.44659 9.44004 9.13424 9.69638 8.76878 9.84776C8.40333 9.99913 8.0012 10.0387 7.61324 9.96157C7.22528 9.8844 6.86891 9.69392 6.5892 9.41421C6.3095 9.13451 6.11902 8.77814 6.04185 8.39018C5.96468 8.00222 6.00428 7.60009 6.15566 7.23463C6.30703 6.86918 6.56338 6.55682 6.89228 6.33706C7.22118 6.1173 7.60786 6 8.00342 6C8.53366 6.00061 9.04202 6.21151 9.41696 6.58646C9.7919 6.9614 10.0028 7.46975 10.0034 8ZM14.2534 5.25V10.75C14.2524 11.6779 13.8833 12.5676 13.2271 13.2237C12.571 13.8799 11.6814 14.2489 10.7534 14.25H5.25342C4.32548 14.2489 3.43585 13.8799 2.77971 13.2237C2.12356 12.5676 1.75447 11.6779 1.75342 10.75V5.25C1.75447 4.32206 2.12356 3.43244 2.77971 2.77629C3.43585 2.12014 4.32548 1.75105 5.25342 1.75H10.7534C11.6814 1.75105 12.571 2.12014 13.2271 2.77629C13.8833 3.43244 14.2524 4.32206 14.2534 5.25ZM11.0034 8C11.0034 7.40666 10.8275 6.82664 10.4978 6.33329C10.1682 5.83994 9.69965 5.45542 9.15147 5.22836C8.60329 5.0013 8.00009 4.94189 7.41815 5.05764C6.8362 5.1734 6.30166 5.45912 5.8821 5.87868C5.46254 6.29824 5.17682 6.83279 5.06106 7.41473C4.94531 7.99667 5.00472 8.59987 5.23178 9.14805C5.45884 9.69623 5.84336 10.1648 6.33671 10.4944C6.83005 10.8241 7.41007 11 8.00342 11C8.79879 10.9991 9.56133 10.6827 10.1237 10.1203C10.6862 9.55791 11.0025 8.79537 11.0034 8ZM12.0034 4.75C12.0034 4.60166 11.9594 4.45666 11.877 4.33332C11.7946 4.20999 11.6775 4.11386 11.5404 4.05709C11.4034 4.00032 11.2526 3.98547 11.1071 4.01441C10.9616 4.04335 10.828 4.11478 10.7231 4.21967C10.6182 4.32456 10.5468 4.4582 10.5178 4.60368C10.4889 4.74917 10.5037 4.89997 10.5605 5.03701C10.6173 5.17406 10.7134 5.29119 10.8367 5.3736C10.9601 5.45601 11.1051 5.5 11.2534 5.5C11.4523 5.5 11.6431 5.42098 11.7837 5.28033C11.9244 5.13968 12.0034 4.94891 12.0034 4.75Z" fill="#94959C"/>
</svg>
