<svg width="98" height="45" viewBox="0 0 98 45" fill="none" xmlns="http://www.w3.org/2000/svg">
<path fill-rule="evenodd" clip-rule="evenodd" d="M28.2553 3.27669L24.8982 0.73772L18.8231 8.77037L22.1802 11.3093L28.2553 3.27669ZM17.5567 1.54733L13.6518 1.29356L13.214 8.02949L17.1189 8.28326L17.5567 1.54733ZM29.6214 9.45319L31.0836 12.8594L24.7427 15.5814L23.2805 12.1752L29.6214 9.45319ZM17.5594 23.0743C19.1553 23.4347 20.4166 24.2326 21.3432 25.4682C22.2956 26.6779 22.7718 28.0679 22.7718 29.6381C22.7718 31.9547 21.9738 33.7693 20.378 35.0821C18.7821 36.3948 16.5427 37.0512 13.6598 37.0512H0.184837V9.83104H13.2351C16.015 9.83104 18.1901 10.4488 19.7602 11.6843C21.3561 12.9199 22.154 14.6573 22.154 16.8967C22.154 18.4926 21.7293 19.8311 20.8799 20.9122C20.0562 21.9675 18.9494 22.6882 17.5594 23.0743ZM7.75243 20.6419H11.5748C13.4796 20.6419 14.432 19.8568 14.432 18.2867C14.432 16.665 13.4796 15.8542 11.5748 15.8542H7.75243V20.6419ZM12.154 30.9508C14.0588 30.9508 15.0111 30.1529 15.0111 28.557C15.0111 27.7333 14.7537 27.1027 14.2389 26.6651C13.7499 26.2275 13.042 26.0087 12.1154 26.0087H7.75243V30.9508H12.154ZM91.3151 20.7402C92.0835 19.6225 93.0149 18.7377 94.1093 18.0857C95.2037 17.4337 96.3796 17.1078 97.6369 17.1078V24.4076H95.7159C94.2257 24.4076 93.1197 24.6986 92.3979 25.2807C91.676 25.8629 91.3151 26.8757 91.3151 28.3194V36.8766H84.4694V17.2824H91.3151V20.7402ZM45.1686 17.2824V36.8766H38.2879V34.0824C37.7058 34.9672 36.9025 35.689 35.878 36.2479C34.8534 36.7834 33.6775 37.0512 32.3503 37.0512C30.0684 37.0512 28.2638 36.3061 26.9366 34.8159C25.6326 33.3024 24.9807 31.2533 24.9807 28.6687V17.2824H31.7915V27.7955C31.7915 28.9132 32.0825 29.798 32.6646 30.45C33.2701 31.0787 34.0617 31.393 35.0397 31.393C36.041 31.393 36.8326 31.0787 37.4148 30.45C37.9969 29.798 38.2879 28.9132 38.2879 27.7955V17.2824H45.1686ZM55.5611 31.1834H63.9087V36.8766H48.0168V31.4629L55.8056 22.9755H48.0867V17.2824H63.6293V22.6961L55.5611 31.1834ZM81.6111 31.1834H73.2635L81.3316 22.6961V17.2824H65.789V22.9755H73.5079L65.7192 31.4629V36.8766H81.6111V31.1834Z" fill="#7D49F8"/>
</svg>
