<svg width="98" height="45" viewBox="0 0 98 45" fill="none" xmlns="http://www.w3.org/2000/svg">
<path fill-rule="evenodd" clip-rule="evenodd" d="M28.528 3.27627L25.1709 0.737305L19.0959 8.76995L22.453 11.3089L28.528 3.27627ZM17.8305 1.54712L13.9256 1.29336L13.4879 8.02929L17.3928 8.28306L17.8305 1.54712ZM29.8948 9.45254L31.357 12.8587L25.0162 15.5807L23.5539 12.1746L29.8948 9.45254ZM17.8336 23.0738C19.4295 23.4341 20.6907 24.2321 21.6174 25.4676C22.5697 26.6774 23.0459 28.0673 23.0459 29.6375C23.0459 31.9541 22.248 33.7688 20.6521 35.0815C19.0562 36.3943 16.8168 37.0506 13.9339 37.0506H0.458984V9.83047H13.5092C16.2892 9.83047 18.4642 10.4482 20.0343 11.6838C21.6302 12.9193 22.4282 14.6567 22.4282 16.8961C22.4282 18.492 22.0035 19.8305 21.154 20.9116C20.3304 21.9669 19.2235 22.6877 17.8336 23.0738ZM8.02658 20.6413H11.849C13.7538 20.6413 14.7061 19.8562 14.7061 18.2861C14.7061 16.6645 13.7538 15.8537 11.849 15.8537H8.02658V20.6413ZM12.4281 30.9502C14.3329 30.9502 15.2853 30.1523 15.2853 28.5564C15.2853 27.7327 15.0279 27.1021 14.5131 26.6645C14.024 26.2269 13.3162 26.0081 12.3895 26.0081H8.02658V30.9502H12.4281ZM91.5891 20.7398C92.3575 19.6221 93.2889 18.7373 94.3833 18.0853C95.4777 17.4333 96.6536 17.1073 97.911 17.1073V24.4071H95.99C94.4997 24.4071 93.3937 24.6982 92.6719 25.2803C91.9501 25.8624 91.5891 26.8753 91.5891 28.319V36.8761H84.7434V17.282H91.5891V20.7398ZM45.4426 17.282V36.8761H38.562V34.082C37.9798 34.9668 37.1765 35.6886 36.152 36.2474C35.1275 36.783 33.9516 37.0508 32.6243 37.0508C30.3424 37.0508 28.5378 36.3057 27.2106 34.8154C25.9067 33.3019 25.2547 31.2529 25.2547 28.6682V17.282H32.0655V27.7951C32.0655 28.9127 32.3566 29.7976 32.9387 30.4495C33.5441 31.0782 34.3358 31.3926 35.3137 31.3926C36.315 31.3926 37.1067 31.0782 37.6888 30.4495C38.2709 29.7976 38.562 28.9127 38.562 27.7951V17.282H45.4426ZM55.8351 31.183H64.1827V36.8761H48.2908V31.4624L56.0796 22.9751H48.3607V17.282H63.9033V22.6957L55.8351 31.183ZM81.8851 31.183H73.5375L81.6057 22.6957V17.282H66.0631V22.9751H73.782L65.9932 31.4624V36.8761H81.8851V31.183Z" fill="#A589FC"/>
</svg>
