<svg width="16" height="16" viewBox="0 0 16 16" fill="none" xmlns="http://www.w3.org/2000/svg">
<path d="M6.21501 5.39671C6.20516 5.12074 5.97345 4.90502 5.69748 4.91487C5.42152 4.92473 5.20579 5.15643 5.21565 5.4324L5.46565 12.4324C5.47551 12.7084 5.70721 12.9241 5.98318 12.9142C6.25914 12.9044 6.47487 12.6727 6.46501 12.3967L6.21501 5.39671Z" fill="#C92929"/>
<path d="M10.715 5.4324C10.7249 5.15643 10.5091 4.92473 10.2332 4.91487C9.95721 4.90502 9.72551 5.12074 9.71565 5.39671L9.46565 12.3967C9.45579 12.6727 9.67152 12.9044 9.94748 12.9142C10.2235 12.9241 10.4552 12.7084 10.465 12.4324L10.715 5.4324Z" fill="#C92929"/>
<path d="M8.46533 5.41455C8.46533 5.13841 8.24147 4.91455 7.96533 4.91455C7.68919 4.91455 7.46533 5.13841 7.46533 5.41455V12.4146C7.46533 12.6907 7.68919 12.9146 7.96533 12.9146C8.24147 12.9146 8.46533 12.6907 8.46533 12.4146V5.41455Z" fill="#C92929"/>
<path fill-rule="evenodd" clip-rule="evenodd" d="M5.46533 2.91455V2.16519C5.46496 2.00099 5.497 1.83833 5.55961 1.68654C5.62233 1.53448 5.7145 1.39633 5.8308 1.28003C5.94711 1.16372 6.08526 1.07156 6.23731 1.00884C6.38911 0.94622 6.55177 0.914182 6.71597 0.914554H9.21469C9.37889 0.914182 9.54155 0.946221 9.69335 1.00884C9.8454 1.07156 9.98355 1.16372 10.0999 1.28003C10.2162 1.39633 10.3083 1.53448 10.371 1.68654C10.4337 1.83836 10.4657 2.00106 10.4653 2.1653V2.91455H12.4607C12.4635 2.91453 12.4662 2.91453 12.469 2.91455H13.4653C13.7415 2.91455 13.9653 3.13841 13.9653 3.41455C13.9653 3.6907 13.7415 3.91455 13.4653 3.91455H12.9351L12.3394 13.4451L12.3394 13.4451C12.2899 14.2552 11.6873 14.9146 10.8403 14.9146H5.09033C4.25132 14.9146 3.63459 14.2609 3.59115 13.4432L2.99561 3.91455H2.46533C2.18919 3.91455 1.96533 3.6907 1.96533 3.41455C1.96533 3.13841 2.18919 2.91455 2.46533 2.91455H3.46164C3.46443 2.91453 3.46721 2.91453 3.46998 2.91455H5.46533ZM6.61864 1.93328C6.64884 1.92082 6.6812 1.91446 6.71387 1.91455L6.71533 1.91455H9.21533L9.2168 1.91455C9.24946 1.91446 9.28182 1.92082 9.31202 1.93328C9.34222 1.94573 9.36965 1.96404 9.39275 1.98713C9.41585 2.01023 9.43415 2.03767 9.44661 2.06787C9.45906 2.09806 9.46543 2.13042 9.46533 2.16309L9.46533 2.16455V2.91455H6.46533V2.16455L6.46533 2.16309C6.46523 2.13042 6.4716 2.09806 6.48405 2.06787C6.49651 2.03767 6.51481 2.01023 6.53791 1.98713C6.56101 1.96404 6.58844 1.94573 6.61864 1.93328ZM4.58936 13.3834L3.99756 3.91455H11.9331L11.3413 13.3841C11.3201 13.7296 11.0977 13.9146 10.8403 13.9146H5.09033C4.83037 13.9146 4.60696 13.7254 4.58967 13.3889C4.58958 13.3871 4.58948 13.3852 4.58936 13.3834Z" fill="#C92929"/>
</svg>
